<svg width="2782pt" height="1550pt"
 viewBox="0.00 0.00 2781.99 1550.25" xmlns="http://www.w3.org/2000/svg" xmlns:xlink="http://www.w3.org/1999/xlink">
<g id="graph0" class="graph" transform="scale(1 1) rotate(0) translate(14.4 1535.8466)">
<title>%3</title>
<polygon fill="#ffffff" stroke="transparent" points="-14.4,14.4 -14.4,-1535.8466 2767.588,-1535.8466 2767.588,14.4 -14.4,14.4"/>
<!-- empty:EventWithoutIngredientsNorPreconditions -->
<g id="node1" class="node">
<title>empty:EventWithoutIngredientsNorPreconditions</title>
<ellipse fill="#d0d93c" stroke="#000000" cx="456.61" cy="-1291.4319" rx="3.6" ry="3.6"/>
</g>
<!-- RequestIDStringTwo -->
<g id="node2" class="node">
<title>RequestIDStringTwo</title>
<ellipse fill="#ff6200" stroke="#ff6200" cx="1257.61" cy="-875.4964" rx="148.6639" ry="148.6639"/>
<text text-anchor="middle" x="1257.61" y="-871.8993" font-family="ING Me" font-size="22.00" fill="#ffffff">RequestIDStringTwo</text>
</g>
<!-- multi:RequestIDStringTwo -->
<g id="node3" class="node">
<title>multi:RequestIDStringTwo</title>
<ellipse fill="#d0d93c" stroke="#000000" cx="1306.61" cy="-678.7756" rx="10.8" ry="10.8"/>
</g>
<!-- RequestIDStringTwo&#45;&gt;multi:RequestIDStringTwo -->
<g id="edge1" class="edge">
<title>RequestIDStringTwo&#45;&gt;multi:RequestIDStringTwo</title>
<path fill="none" stroke="#000000" d="M1293.6075,-730.9767C1296.6189,-718.887 1299.3306,-708.0005 1301.4886,-699.3367"/>
<polygon fill="#000000" stroke="#000000" points="1304.886,-700.1775 1303.9068,-689.628 1298.0936,-698.4855 1304.886,-700.1775"/>
</g>
<!-- InteractionThree -->
<g id="node4" class="node">
<title>InteractionThree</title>
<path fill="#525199" stroke="#525199" stroke-width="2" d="M1411.7721,-631.9786C1411.7721,-631.9786 1201.4479,-631.9786 1201.4479,-631.9786 1195.4479,-631.9786 1189.4479,-625.9786 1189.4479,-619.9786 1189.4479,-619.9786 1189.4479,-543.9668 1189.4479,-543.9668 1189.4479,-537.9668 1195.4479,-531.9668 1201.4479,-531.9668 1201.4479,-531.9668 1411.7721,-531.9668 1411.7721,-531.9668 1417.7721,-531.9668 1423.7721,-537.9668 1423.7721,-543.9668 1423.7721,-543.9668 1423.7721,-619.9786 1423.7721,-619.9786 1423.7721,-625.9786 1417.7721,-631.9786 1411.7721,-631.9786"/>
<text text-anchor="middle" x="1306.61" y="-578.3756" font-family="ING Me" font-size="22.00" fill="#ffffff">InteractionThree</text>
</g>
<!-- multi:RequestIDStringTwo&#45;&gt;InteractionThree -->
<g id="edge2" class="edge">
<title>multi:RequestIDStringTwo&#45;&gt;InteractionThree</title>
<path fill="none" stroke="#000000" d="M1306.61,-667.6711C1306.61,-661.0365 1306.61,-652.0297 1306.61,-642.3403"/>
<polygon fill="#000000" stroke="#000000" points="1310.1101,-642.0665 1306.61,-632.0666 1303.1101,-642.0666 1310.1101,-642.0665"/>
</g>
<!-- SieveImpl -->
<g id="node5" class="node">
<title>SieveImpl</title>
<path fill="#7594d6" stroke="#7594d6" stroke-width="2" d="M1595.4123,-631.9786C1595.4123,-631.9786 1453.8077,-631.9786 1453.8077,-631.9786 1447.8077,-631.9786 1441.8077,-625.9786 1441.8077,-619.9786 1441.8077,-619.9786 1441.8077,-543.9668 1441.8077,-543.9668 1441.8077,-537.9668 1447.8077,-531.9668 1453.8077,-531.9668 1453.8077,-531.9668 1595.4123,-531.9668 1595.4123,-531.9668 1601.4123,-531.9668 1607.4123,-537.9668 1607.4123,-543.9668 1607.4123,-543.9668 1607.4123,-619.9786 1607.4123,-619.9786 1607.4123,-625.9786 1601.4123,-631.9786 1595.4123,-631.9786"/>
<text text-anchor="middle" x="1524.61" y="-578.3756" font-family="ING Me" font-size="22.00" fill="#ffffff">SieveImpl</text>
</g>
<!-- multi:RequestIDStringTwo&#45;&gt;SieveImpl -->
<g id="edge3" class="edge">
<title>multi:RequestIDStringTwo&#45;&gt;SieveImpl</title>
<path fill="none" stroke="#000000" d="M1316.9346,-675.4959C1338.7064,-668.46 1390.7623,-651.003 1432.61,-631.9756 1432.7057,-631.9321 1432.8014,-631.8885 1432.8971,-631.8449"/>
<polygon fill="#000000" stroke="#000000" points="1434.3147,-635.0459 1441.8869,-627.6357 1431.3463,-628.7064 1434.3147,-635.0459"/>
</g>
<!-- SieveImplSuccessful -->
<g id="node6" class="node">
<title>SieveImplSuccessful</title>
<path fill="#767676" stroke="#767676" d="M1513.1219,-492.5083C1513.1219,-492.5083 1297.5061,-427.4312 1297.5061,-427.4312 1291.7621,-425.6975 1291.7621,-422.2302 1297.5061,-420.4965 1297.5061,-420.4965 1513.1219,-355.4194 1513.1219,-355.4194 1518.8659,-353.6857 1530.3541,-353.6857 1536.0981,-355.4194 1536.0981,-355.4194 1751.7139,-420.4965 1751.7139,-420.4965 1757.4579,-422.2302 1757.4579,-425.6975 1751.7139,-427.4312 1751.7139,-427.4312 1536.0981,-492.5083 1536.0981,-492.5083 1530.3541,-494.2419 1518.8659,-494.2419 1513.1219,-492.5083"/>
<text text-anchor="middle" x="1524.61" y="-420.3668" font-family="ING Me" font-size="22.00" fill="#ffffff">SieveImplSuccessful</text>
</g>
<!-- SieveImpl&#45;&gt;SieveImplSuccessful -->
<g id="edge4" class="edge">
<title>SieveImpl&#45;&gt;SieveImplSuccessful</title>
<path fill="none" stroke="#000000" d="M1524.61,-531.5432C1524.61,-523.4288 1524.61,-514.8496 1524.61,-506.2186"/>
<polygon fill="#000000" stroke="#000000" points="1528.1101,-506.0874 1524.61,-496.0874 1521.1101,-506.0874 1528.1101,-506.0874"/>
</g>
<!-- AppendedRequestIds -->
<g id="node7" class="node">
<title>AppendedRequestIds</title>
<ellipse fill="#ff6200" stroke="#ff6200" cx="1524.61" cy="-157.979" rx="157.9579" ry="157.9579"/>
<text text-anchor="middle" x="1524.61" y="-154.3819" font-family="ING Me" font-size="22.00" fill="#ffffff">AppendedRequestIds</text>
</g>
<!-- SieveImplSuccessful&#45;&gt;AppendedRequestIds -->
<g id="edge5" class="edge">
<title>SieveImplSuccessful&#45;&gt;AppendedRequestIds</title>
<path fill="none" stroke="#000000" d="M1524.61,-351.6336C1524.61,-343.5621 1524.61,-335.1112 1524.61,-326.4434"/>
<polygon fill="#000000" stroke="#000000" points="1528.1101,-326.1782 1524.61,-316.1783 1521.1101,-326.1783 1528.1101,-326.1782"/>
</g>
<!-- InteractionOneRenamed -->
<g id="node8" class="node">
<title>InteractionOneRenamed</title>
<path fill="#525199" stroke="#525199" stroke-width="2" d="M2011.5383,-1341.4378C2011.5383,-1341.4378 1721.6817,-1341.4378 1721.6817,-1341.4378 1715.6817,-1341.4378 1709.6817,-1335.4378 1709.6817,-1329.4378 1709.6817,-1329.4378 1709.6817,-1253.426 1709.6817,-1253.426 1709.6817,-1247.426 1715.6817,-1241.426 1721.6817,-1241.426 1721.6817,-1241.426 2011.5383,-1241.426 2011.5383,-1241.426 2017.5383,-1241.426 2023.5383,-1247.426 2023.5383,-1253.426 2023.5383,-1253.426 2023.5383,-1329.4378 2023.5383,-1329.4378 2023.5383,-1335.4378 2017.5383,-1341.4378 2011.5383,-1341.4378"/>
<text text-anchor="middle" x="1866.61" y="-1287.8348" font-family="ING Me" font-size="22.00" fill="#ffffff">InteractionOneRenamed</text>
</g>
<!-- InteractionOneRenamedSuccessful -->
<g id="node9" class="node">
<title>InteractionOneRenamedSuccessful</title>
<path fill="#767676" stroke="#767676" d="M1751.8127,-1203.2387C1751.8127,-1203.2387 1388.5633,-1135.6192 1388.5633,-1135.6192 1382.6646,-1134.5211 1382.6646,-1132.325 1388.5633,-1131.227 1388.5633,-1131.227 1751.8127,-1063.6074 1751.8127,-1063.6074 1757.7113,-1062.5093 1769.5087,-1062.5093 1775.4073,-1063.6074 1775.4073,-1063.6074 2138.6567,-1131.227 2138.6567,-1131.227 2144.5554,-1132.325 2144.5554,-1134.5211 2138.6567,-1135.6192 2138.6567,-1135.6192 1775.4073,-1203.2387 1775.4073,-1203.2387 1769.5087,-1204.3368 1757.7113,-1204.3368 1751.8127,-1203.2387"/>
<text text-anchor="middle" x="1763.61" y="-1129.826" font-family="ING Me" font-size="22.00" fill="#ffffff">InteractionOneRenamedSuccessful</text>
</g>
<!-- InteractionOneRenamed&#45;&gt;InteractionOneRenamedSuccessful -->
<g id="edge6" class="edge">
<title>InteractionOneRenamed&#45;&gt;InteractionOneRenamedSuccessful</title>
<path fill="none" stroke="#000000" d="M1833.737,-1241.0025C1826.5359,-1229.9556 1818.7733,-1218.0472 1811.1284,-1206.3194"/>
<polygon fill="#000000" stroke="#000000" points="1813.9852,-1204.2926 1805.5922,-1197.8266 1808.1211,-1208.1152 1813.9852,-1204.2926"/>
</g>
<!-- RequestIDStringOne -->
<g id="node10" class="node">
<title>RequestIDStringOne</title>
<ellipse fill="#ff6200" stroke="#ff6200" cx="1763.61" cy="-875.4964" rx="149.8416" ry="149.8416"/>
<text text-anchor="middle" x="1763.61" y="-871.8993" font-family="ING Me" font-size="22.00" fill="#ffffff">RequestIDStringOne</text>
</g>
<!-- InteractionOneRenamedSuccessful&#45;&gt;RequestIDStringOne -->
<g id="edge7" class="edge">
<title>InteractionOneRenamedSuccessful&#45;&gt;RequestIDStringOne</title>
<path fill="none" stroke="#000000" d="M1763.61,-1061.2331C1763.61,-1053.0038 1763.61,-1044.3892 1763.61,-1035.568"/>
<polygon fill="#000000" stroke="#000000" points="1767.1101,-1035.5304 1763.61,-1025.5305 1760.1101,-1035.5305 1767.1101,-1035.5304"/>
</g>
<!-- multi:RequestIDStringOne -->
<g id="node11" class="node">
<title>multi:RequestIDStringOne</title>
<ellipse fill="#d0d93c" stroke="#000000" cx="1524.61" cy="-678.7756" rx="10.8" ry="10.8"/>
</g>
<!-- RequestIDStringOne&#45;&gt;multi:RequestIDStringOne -->
<g id="edge8" class="edge">
<title>RequestIDStringOne&#45;&gt;multi:RequestIDStringOne</title>
<path fill="none" stroke="#000000" d="M1647.6105,-780.0173C1605.8223,-745.6214 1563.4627,-710.7553 1540.9957,-692.2626"/>
<polygon fill="#000000" stroke="#000000" points="1543.0933,-689.4561 1533.148,-685.8033 1538.6447,-694.8607 1543.0933,-689.4561"/>
</g>
<!-- multi:RequestIDStringOne&#45;&gt;InteractionThree -->
<g id="edge9" class="edge">
<title>multi:RequestIDStringOne&#45;&gt;InteractionThree</title>
<path fill="none" stroke="#000000" d="M1514.6765,-674.3646C1498.4359,-667.153 1464.391,-652.0353 1428.4572,-636.0789"/>
<polygon fill="#000000" stroke="#000000" points="1429.8504,-632.8681 1419.2905,-632.0084 1427.0095,-639.2657 1429.8504,-632.8681"/>
</g>
<!-- multi:RequestIDStringOne&#45;&gt;SieveImpl -->
<g id="edge10" class="edge">
<title>multi:RequestIDStringOne&#45;&gt;SieveImpl</title>
<path fill="none" stroke="#000000" d="M1524.61,-667.6711C1524.61,-661.0365 1524.61,-652.0297 1524.61,-642.3403"/>
<polygon fill="#000000" stroke="#000000" points="1528.1101,-642.0665 1524.61,-632.0666 1521.1101,-642.0666 1528.1101,-642.0665"/>
</g>
<!-- EventTwo -->
<g id="node12" class="node">
<title>EventTwo</title>
<path fill="#d5d5d5" stroke="#767676" stroke-width="2" d="M1056.9919,-1515.8618C1056.9919,-1515.8618 941.46,-1455.0314 941.46,-1455.0314 936.151,-1452.2361 936.151,-1446.6454 941.46,-1443.85 941.46,-1443.85 1056.9919,-1383.0196 1056.9919,-1383.0196 1062.3009,-1380.2243 1072.9191,-1380.2243 1078.2281,-1383.0196 1078.2281,-1383.0196 1193.76,-1443.85 1193.76,-1443.85 1199.069,-1446.6454 1199.069,-1452.2361 1193.76,-1455.0314 1193.76,-1455.0314 1078.2281,-1515.8618 1078.2281,-1515.8618 1072.9191,-1518.6572 1062.3009,-1518.6572 1056.9919,-1515.8618"/>
<text text-anchor="middle" x="1067.61" y="-1445.8437" font-family="ING Me" font-size="22.00" fill="#000000">EventTwo</text>
</g>
<!-- InteractionTwo -->
<g id="node13" class="node">
<title>InteractionTwo</title>
<path fill="#525199" stroke="#525199" stroke-width="2" d="M1164.4041,-1341.4378C1164.4041,-1341.4378 970.8159,-1341.4378 970.8159,-1341.4378 964.8159,-1341.4378 958.8159,-1335.4378 958.8159,-1329.4378 958.8159,-1329.4378 958.8159,-1253.426 958.8159,-1253.426 958.8159,-1247.426 964.8159,-1241.426 970.8159,-1241.426 970.8159,-1241.426 1164.4041,-1241.426 1164.4041,-1241.426 1170.4041,-1241.426 1176.4041,-1247.426 1176.4041,-1253.426 1176.4041,-1253.426 1176.4041,-1329.4378 1176.4041,-1329.4378 1176.4041,-1335.4378 1170.4041,-1341.4378 1164.4041,-1341.4378"/>
<text text-anchor="middle" x="1067.61" y="-1287.8348" font-family="ING Me" font-size="22.00" fill="#ffffff">InteractionTwo</text>
</g>
<!-- EventTwo&#45;&gt;InteractionTwo -->
<g id="edge11" class="edge">
<title>EventTwo&#45;&gt;InteractionTwo</title>
<path fill="none" stroke="#000000" d="M1067.61,-1377.3721C1067.61,-1368.808 1067.61,-1360.1344 1067.61,-1351.758"/>
<polygon fill="#000000" stroke="#000000" points="1071.1101,-1351.7152 1067.61,-1341.7153 1064.1101,-1351.7153 1071.1101,-1351.7152"/>
</g>
<!-- InteractionTwoSuccessful -->
<g id="node14" class="node">
<title>InteractionTwoSuccessful</title>
<path fill="#767676" stroke="#767676" d="M1055.9612,-1202.5529C1055.9612,-1202.5529 788.1828,-1136.305 788.1828,-1136.305 782.3584,-1134.864 782.3584,-1131.9821 788.1828,-1130.5412 788.1828,-1130.5412 1055.9612,-1064.2932 1055.9612,-1064.2932 1061.7856,-1062.8522 1073.4344,-1062.8522 1079.2588,-1064.2932 1079.2588,-1064.2932 1347.0372,-1130.5412 1347.0372,-1130.5412 1352.8616,-1131.9821 1352.8616,-1134.864 1347.0372,-1136.305 1347.0372,-1136.305 1079.2588,-1202.5529 1079.2588,-1202.5529 1073.4344,-1203.9939 1061.7856,-1203.9939 1055.9612,-1202.5529"/>
<text text-anchor="middle" x="1067.61" y="-1129.826" font-family="ING Me" font-size="22.00" fill="#ffffff">InteractionTwoSuccessful</text>
</g>
<!-- InteractionTwo&#45;&gt;InteractionTwoSuccessful -->
<g id="edge12" class="edge">
<title>InteractionTwo&#45;&gt;InteractionTwoSuccessful</title>
<path fill="none" stroke="#000000" d="M1067.61,-1241.0025C1067.61,-1232.888 1067.61,-1224.3088 1067.61,-1215.6778"/>
<polygon fill="#000000" stroke="#000000" points="1071.1101,-1215.5466 1067.61,-1205.5466 1064.1101,-1215.5467 1071.1101,-1215.5466"/>
</g>
<!-- InteractionTwoSuccessful&#45;&gt;RequestIDStringTwo -->
<g id="edge13" class="edge">
<title>InteractionTwoSuccessful&#45;&gt;RequestIDStringTwo</title>
<path fill="none" stroke="#000000" d="M1112.6373,-1072.298C1127.9191,-1051.5529 1145.6127,-1027.5337 1163.2756,-1003.5562"/>
<polygon fill="#000000" stroke="#000000" points="1166.1479,-1005.5582 1169.2609,-995.431 1160.512,-1001.4065 1166.1479,-1005.5582"/>
</g>
<!-- EventOne -->
<g id="node15" class="node">
<title>EventOne</title>
<path fill="#d5d5d5" stroke="#767676" stroke-width="2" d="M2100.9656,-1515.912C2100.9656,-1515.912 1983.9063,-1454.9812 1983.9063,-1454.9812 1978.5841,-1452.211 1978.5841,-1446.6705 1983.9063,-1443.9002 1983.9063,-1443.9002 2100.9656,-1382.9695 2100.9656,-1382.9695 2106.2878,-1380.1992 2116.9322,-1380.1992 2122.2544,-1382.9695 2122.2544,-1382.9695 2239.3137,-1443.9002 2239.3137,-1443.9002 2244.6359,-1446.6705 2244.6359,-1452.211 2239.3137,-1454.9812 2239.3137,-1454.9812 2122.2544,-1515.912 2122.2544,-1515.912 2116.9322,-1518.6822 2106.2878,-1518.6822 2100.9656,-1515.912"/>
<text text-anchor="middle" x="2111.61" y="-1445.8437" font-family="ING Me" font-size="22.00" fill="#000000">EventOne</text>
</g>
<!-- EventOne&#45;&gt;InteractionOneRenamed -->
<g id="edge15" class="edge">
<title>EventOne&#45;&gt;InteractionOneRenamed</title>
<path fill="none" stroke="#000000" d="M2049.7862,-1409.5684C2020.3773,-1390.6016 1984.7264,-1367.6092 1952.7206,-1346.9675"/>
<polygon fill="#000000" stroke="#000000" points="1954.5355,-1343.9733 1944.2347,-1341.4947 1950.7416,-1349.856 1954.5355,-1343.9733"/>
</g>
<!-- InteractionOne -->
<g id="node16" class="node">
<title>InteractionOne</title>
<path fill="#525199" stroke="#525199" stroke-width="2" d="M2454.4443,-1341.4378C2454.4443,-1341.4378 2258.7757,-1341.4378 2258.7757,-1341.4378 2252.7757,-1341.4378 2246.7757,-1335.4378 2246.7757,-1329.4378 2246.7757,-1329.4378 2246.7757,-1253.426 2246.7757,-1253.426 2246.7757,-1247.426 2252.7757,-1241.426 2258.7757,-1241.426 2258.7757,-1241.426 2454.4443,-1241.426 2454.4443,-1241.426 2460.4443,-1241.426 2466.4443,-1247.426 2466.4443,-1253.426 2466.4443,-1253.426 2466.4443,-1329.4378 2466.4443,-1329.4378 2466.4443,-1335.4378 2460.4443,-1341.4378 2454.4443,-1341.4378"/>
<text text-anchor="middle" x="2356.61" y="-1287.8348" font-family="ING Me" font-size="22.00" fill="#ffffff">InteractionOne</text>
</g>
<!-- EventOne&#45;&gt;InteractionOne -->
<g id="edge14" class="edge">
<title>EventOne&#45;&gt;InteractionOne</title>
<path fill="none" stroke="#000000" d="M2173.4338,-1409.5684C2202.8427,-1390.6016 2238.4936,-1367.6092 2270.4994,-1346.9675"/>
<polygon fill="#000000" stroke="#000000" points="2272.4784,-1349.856 2278.9853,-1341.4947 2268.6845,-1343.9733 2272.4784,-1349.856"/>
</g>
<!-- InteractionOneSuccessful -->
<g id="node17" class="node">
<title>InteractionOneSuccessful</title>
<path fill="#767676" stroke="#767676" d="M2448.9576,-1202.5676C2448.9576,-1202.5676 2179.6064,-1136.2903 2179.6064,-1136.2903 2173.7802,-1134.8567 2173.7802,-1131.9894 2179.6064,-1130.5558 2179.6064,-1130.5558 2448.9576,-1064.2785 2448.9576,-1064.2785 2454.7838,-1062.8449 2466.4362,-1062.8449 2472.2624,-1064.2785 2472.2624,-1064.2785 2741.6136,-1130.5558 2741.6136,-1130.5558 2747.4398,-1131.9894 2747.4398,-1134.8567 2741.6136,-1136.2903 2741.6136,-1136.2903 2472.2624,-1202.5676 2472.2624,-1202.5676 2466.4362,-1204.0012 2454.7838,-1204.0012 2448.9576,-1202.5676"/>
<text text-anchor="middle" x="2460.61" y="-1129.826" font-family="ING Me" font-size="22.00" fill="#ffffff">InteractionOneSuccessful</text>
</g>
<!-- InteractionOne&#45;&gt;InteractionOneSuccessful -->
<g id="edge16" class="edge">
<title>InteractionOne&#45;&gt;InteractionOneSuccessful</title>
<path fill="none" stroke="#000000" d="M2389.8022,-1241.0025C2397.5302,-1229.2612 2405.8986,-1216.5469 2414.0842,-1204.1105"/>
<polygon fill="#000000" stroke="#000000" points="2417.1373,-1205.8378 2419.7117,-1195.5605 2411.2902,-1201.9893 2417.1373,-1205.8378"/>
</g>
<!-- InteractionOneSuccessful&#45;&gt;RequestIDStringOne -->
<g id="edge17" class="edge">
<title>InteractionOneSuccessful&#45;&gt;RequestIDStringOne</title>
<path fill="none" stroke="#000000" d="M2343.555,-1090.1065C2225.435,-1046.3959 2042.5745,-978.7279 1913.8252,-931.0839"/>
<polygon fill="#000000" stroke="#000000" points="1914.856,-927.7335 1904.2629,-927.5453 1912.4266,-934.2984 1914.856,-927.7335"/>
</g>
<!-- EventWithoutIngredientsNorPreconditions -->
<g id="node18" class="node">
<title>EventWithoutIngredientsNorPreconditions</title>
<path fill="#d5d5d5" stroke="#767676" stroke-width="2" d="M444.7564,-1519.5835C444.7564,-1519.5835 11.7435,-1451.3097 11.7435,-1451.3097 5.8168,-1450.3752 5.8168,-1448.5062 11.7435,-1447.5718 11.7435,-1447.5718 444.7564,-1379.2979 444.7564,-1379.2979 450.6832,-1378.3634 462.5368,-1378.3634 468.4636,-1379.2979 468.4636,-1379.2979 901.4765,-1447.5718 901.4765,-1447.5718 907.4032,-1448.5062 907.4032,-1450.3752 901.4765,-1451.3097 901.4765,-1451.3097 468.4636,-1519.5835 468.4636,-1519.5835 462.5368,-1520.518 450.6832,-1520.518 444.7564,-1519.5835"/>
<text text-anchor="middle" x="456.61" y="-1445.8437" font-family="ING Me" font-size="22.00" fill="#000000">EventWithoutIngredientsNorPreconditions</text>
</g>
<!-- EventWithoutIngredientsNorPreconditions&#45;&gt;empty:EventWithoutIngredientsNorPreconditions -->
<g id="edge18" class="edge">
<title>EventWithoutIngredientsNorPreconditions&#45;&gt;empty:EventWithoutIngredientsNorPreconditions</title>
<path fill="none" stroke="#000000" d="M456.61,-1377.3721C456.61,-1350.1411 456.61,-1321.8025 456.61,-1305.4311"/>
<polygon fill="#000000" stroke="#000000" points="460.1101,-1305.117 456.61,-1295.117 453.1101,-1305.1171 460.1101,-1305.117"/>
</g>
</g>
</svg>
