<svg width="614pt" height="825pt"
 viewBox="0.00 0.00 613.96 824.67" xmlns="http://www.w3.org/2000/svg" xmlns:xlink="http://www.w3.org/1999/xlink">
<g id="graph0" class="graph" transform="scale(1 1) rotate(0) translate(14.4 810.271)">
<title>%3</title>
<polygon fill="#ffffff" stroke="transparent" points="-14.4,14.4 -14.4,-810.271 599.556,-810.271 599.556,14.4 -14.4,14.4"/>
<!-- EventOne -->
<g id="node1" class="node">
<title>EventOne</title>
<path fill="#d5d5d5" stroke="#767676" stroke-width="2" d="M281.9336,-790.3364C281.9336,-790.3364 164.8743,-729.4056 164.8743,-729.4056 159.5521,-726.6354 159.5521,-721.0949 164.8743,-718.3246 164.8743,-718.3246 281.9336,-657.3939 281.9336,-657.3939 287.2558,-654.6236 297.9002,-654.6236 303.2224,-657.3939 303.2224,-657.3939 420.2817,-718.3246 420.2817,-718.3246 425.6039,-721.0949 425.6039,-726.6354 420.2817,-729.4056 420.2817,-729.4056 303.2224,-790.3364 303.2224,-790.3364 297.9002,-793.1066 287.2558,-793.1066 281.9336,-790.3364"/>
<text text-anchor="middle" x="292.578" y="-720.2681" font-family="ING Me" font-size="22.00" fill="#000000">EventOne</text>
</g>
<!-- InteractionOne -->
<g id="node2" class="node">
<title>InteractionOne</title>
<path fill="#525199" stroke="#525199" stroke-width="2" d="M390.4123,-615.8622C390.4123,-615.8622 194.7437,-615.8622 194.7437,-615.8622 188.7437,-615.8622 182.7437,-609.8622 182.7437,-603.8622 182.7437,-603.8622 182.7437,-527.8504 182.7437,-527.8504 182.7437,-521.8504 188.7437,-515.8504 194.7437,-515.8504 194.7437,-515.8504 390.4123,-515.8504 390.4123,-515.8504 396.4123,-515.8504 402.4123,-521.8504 402.4123,-527.8504 402.4123,-527.8504 402.4123,-603.8622 402.4123,-603.8622 402.4123,-609.8622 396.4123,-615.8622 390.4123,-615.8622"/>
<text text-anchor="middle" x="292.578" y="-562.2592" font-family="ING Me" font-size="22.00" fill="#ffffff">InteractionOne</text>
</g>
<!-- EventOne&#45;&gt;InteractionOne -->
<g id="edge1" class="edge">
<title>EventOne&#45;&gt;InteractionOne</title>
<path fill="none" stroke="#000000" d="M292.578,-651.7965C292.578,-643.2324 292.578,-634.5588 292.578,-626.1824"/>
<polygon fill="#000000" stroke="#000000" points="296.0781,-626.1396 292.578,-616.1397 289.0781,-626.1397 296.0781,-626.1396"/>
</g>
<!-- InteractionOneSuccessful -->
<g id="node3" class="node">
<title>InteractionOneSuccessful</title>
<path fill="#767676" stroke="#767676" d="M280.9256,-476.992C280.9256,-476.992 11.5744,-410.7147 11.5744,-410.7147 5.7482,-409.2811 5.7482,-406.4138 11.5744,-404.9802 11.5744,-404.9802 280.9256,-338.7029 280.9256,-338.7029 286.7518,-337.2693 298.4042,-337.2693 304.2304,-338.7029 304.2304,-338.7029 573.5816,-404.9802 573.5816,-404.9802 579.4078,-406.4138 579.4078,-409.2811 573.5816,-410.7147 573.5816,-410.7147 304.2304,-476.992 304.2304,-476.992 298.4042,-478.4256 286.7518,-478.4256 280.9256,-476.992"/>
<text text-anchor="middle" x="292.578" y="-404.2504" font-family="ING Me" font-size="22.00" fill="#ffffff">InteractionOneSuccessful</text>
</g>
<!-- InteractionOne&#45;&gt;InteractionOneSuccessful -->
<g id="edge2" class="edge">
<title>InteractionOne&#45;&gt;InteractionOneSuccessful</title>
<path fill="none" stroke="#000000" d="M292.578,-515.4269C292.578,-507.3124 292.578,-498.7332 292.578,-490.1022"/>
<polygon fill="#000000" stroke="#000000" points="296.0781,-489.971 292.578,-479.971 289.0781,-489.9711 296.0781,-489.971"/>
</g>
<!-- RequestIDStringOne -->
<g id="node4" class="node">
<title>RequestIDStringOne</title>
<ellipse fill="#ff6200" stroke="#ff6200" cx="292.578" cy="-149.9208" rx="149.8416" ry="149.8416"/>
<text text-anchor="middle" x="292.578" y="-146.3237" font-family="ING Me" font-size="22.00" fill="#ffffff">RequestIDStringOne</text>
</g>
<!-- InteractionOneSuccessful&#45;&gt;RequestIDStringOne -->
<g id="edge3" class="edge">
<title>InteractionOneSuccessful&#45;&gt;RequestIDStringOne</title>
<path fill="none" stroke="#000000" d="M292.578,-335.6575C292.578,-327.4282 292.578,-318.8136 292.578,-309.9924"/>
<polygon fill="#000000" stroke="#000000" points="296.0781,-309.9548 292.578,-299.9549 289.0781,-309.9549 296.0781,-309.9548"/>
</g>
</g>
</svg>
