<?xml version="1.0" encoding="UTF-8" standalone="no"?><!DOCTYPE svg PUBLIC "-//W3C//DTD SVG 1.1//EN" "http://www.w3.org/Graphics/SVG/1.1/DTD/svg11.dtd"><!-- Generated by graphviz version 2.40.1 (20161225.0304)
 --><!-- Title: %0 Pages: 1 --><svg xmlns="http://www.w3.org/2000/svg" xmlns:xlink="http://www.w3.org/1999/xlink" width="1146pt" height="1387pt" viewBox="0.00 0.00 1146.12 1387.33">
<g id="graph0" class="graph" transform="scale(1 1) rotate(0) translate(14.4 1372.9283)">
<title>%0</title>
<polygon fill="#ffffff" stroke="transparent" points="-14.4,14.4 -14.4,-1372.9283 1131.7193,-1372.9283 1131.7193,14.4 -14.4,14.4"/>
<!-- orderId -->
<g id="node1" class="node">
<title>orderId</title>
<ellipse fill="#ff6200" stroke="#ff6200" cx="425.9594" cy="-1100.4375" rx="57.1798" ry="57.1798"/>
<text text-anchor="middle" x="425.9594" y="-1093.8375" font-family="ING Me" font-size="22.00" fill="#ffffff">orderId</text>
</g>
<!-- CancelOrder -->
<g id="node2" class="node">
<title>CancelOrder</title>
<path fill="#525199" stroke="#525199" stroke-width="2" d="M954.338,-296.6008C954.338,-296.6008 793.5808,-296.6008 793.5808,-296.6008 787.5808,-296.6008 781.5808,-290.6008 781.5808,-284.6008 781.5808,-284.6008 781.5808,-209.7992 781.5808,-209.7992 781.5808,-203.7992 787.5808,-197.7992 793.5808,-197.7992 793.5808,-197.7992 954.338,-197.7992 954.338,-197.7992 960.338,-197.7992 966.338,-203.7992 966.338,-209.7992 966.338,-209.7992 966.338,-284.6008 966.338,-284.6008 966.338,-290.6008 960.338,-296.6008 954.338,-296.6008"/>
<text text-anchor="middle" x="873.9594" y="-240.6" font-family="ING Me" font-size="22.00" fill="#ffffff">CancelOrder</text>
</g>
<!-- orderId&#45;&gt;CancelOrder -->
<g id="edge1" class="edge">
<title>orderId-&gt;CancelOrder</title>
<path fill="none" stroke="#000000" d="M457.685,-1052.38C467.511,-1040.2423 479.1594,-1028.123 491.9594,-1019.1467 700.3596,-873.0016 885.4293,-1038.6499 1032.9594,-831.2278 1155.9968,-658.2417 1132.9621,-540.8481 1032.9594,-353.6 1019.7902,-328.9415 998.0943,-308.9963 974.9017,-293.3305"/>
<polygon fill="#000000" stroke="#000000" points="976.5965,-290.258 966.3024,-287.7517 972.7868,-296.1305 976.5965,-290.258"/>
</g>
<!-- ShipOrder -->
<g id="node5" class="node">
<title>ShipOrder</title>
<path fill="#525199" stroke="#525199" stroke-width="2" d="M286.5986,-553.4147C286.5986,-553.4147 147.3202,-553.4147 147.3202,-553.4147 141.3202,-553.4147 135.3202,-547.4147 135.3202,-541.4147 135.3202,-541.4147 135.3202,-466.6131 135.3202,-466.6131 135.3202,-460.6131 141.3202,-454.6131 147.3202,-454.6131 147.3202,-454.6131 286.5986,-454.6131 286.5986,-454.6131 292.5986,-454.6131 298.5986,-460.6131 298.5986,-466.6131 298.5986,-466.6131 298.5986,-541.4147 298.5986,-541.4147 298.5986,-547.4147 292.5986,-553.4147 286.5986,-553.4147"/>
<text text-anchor="middle" x="216.9594" y="-497.4139" font-family="ING Me" font-size="22.00" fill="#ffffff">ShipOrder</text>
</g>
<!-- orderId&#45;&gt;ShipOrder -->
<g id="edge7" class="edge">
<title>orderId-&gt;ShipOrder</title>
<path fill="none" stroke="#000000" d="M435.8265,-1044.1017C447.4825,-962.2191 459.2604,-807.3508 406.9594,-690.4278 383.5204,-638.0282 338.093,-592.5895 297.5346,-559.6939"/>
<polygon fill="#000000" stroke="#000000" points="299.4965,-556.7818 289.4958,-553.2836 295.1322,-562.2548 299.4965,-556.7818"/>
</g>
<!-- CheckStock -->
<g id="node6" class="node">
<title>CheckStock</title>
<path fill="#525199" stroke="#525199" stroke-width="2" d="M368.2725,-974.5881C368.2725,-974.5881 213.6463,-974.5881 213.6463,-974.5881 207.6463,-974.5881 201.6463,-968.5881 201.6463,-962.5881 201.6463,-962.5881 201.6463,-887.7864 201.6463,-887.7864 201.6463,-881.7864 207.6463,-875.7864 213.6463,-875.7864 213.6463,-875.7864 368.2725,-875.7864 368.2725,-875.7864 374.2725,-875.7864 380.2725,-881.7864 380.2725,-887.7864 380.2725,-887.7864 380.2725,-962.5881 380.2725,-962.5881 380.2725,-968.5881 374.2725,-974.5881 368.2725,-974.5881"/>
<text text-anchor="middle" x="290.9594" y="-918.5873" font-family="ING Me" font-size="22.00" fill="#ffffff">CheckStock</text>
</g>
<!-- orderId&#45;&gt;CheckStock -->
<g id="edge12" class="edge">
<title>orderId-&gt;CheckStock</title>
<path fill="none" stroke="#000000" d="M390.8422,-1054.8501C373.8601,-1032.8048 353.2942,-1006.1072 335.2485,-982.6811"/>
<polygon fill="#000000" stroke="#000000" points="337.856,-980.3306 328.9806,-974.5445 332.3105,-984.6025 337.856,-980.3306"/>
</g>
<!-- OrderCancelled -->
<g id="node8" class="node">
<title>OrderCancelled</title>
<path fill="#767676" stroke="#767676" d="M862.7574,-136.3972C862.7574,-136.3972 702.1455,-74.7029 702.1455,-74.7029 696.5445,-72.5515 696.5445,-68.2485 702.1455,-66.0971 702.1455,-66.0971 862.7574,-4.4028 862.7574,-4.4028 868.3584,-2.2513 879.5604,-2.2513 885.1614,-4.4028 885.1614,-4.4028 1045.7733,-66.0971 1045.7733,-66.0971 1051.3743,-68.2485 1051.3743,-72.5515 1045.7733,-74.7029 1045.7733,-74.7029 885.1614,-136.3972 885.1614,-136.3972 879.5604,-138.5487 868.3584,-138.5487 862.7574,-136.3972"/>
<text text-anchor="middle" x="873.9594" y="-63.8" font-family="ING Me" font-size="22.00" fill="#ffffff">OrderCancelled</text>
</g>
<!-- CancelOrder&#45;&gt;OrderCancelled -->
<g id="edge5" class="edge">
<title>CancelOrder-&gt;OrderCancelled</title>
<path fill="none" stroke="#000000" d="M873.9594,-197.9513C873.9594,-183.4513 873.9594,-167.19 873.9594,-151.2579"/>
<polygon fill="#000000" stroke="#000000" points="877.4595,-150.8575 873.9594,-140.8575 870.4595,-150.8576 877.4595,-150.8575"/>
</g>
<!-- OrderHasUnavailableItems -->
<g id="node3" class="node">
<title>OrderHasUnavailableItems</title>
<path fill="#767676" stroke="#767676" d="M727.3091,-828.2524C727.3091,-828.2524 465.7937,-763.7034 465.7937,-763.7034 459.9685,-762.2656 459.9685,-759.39 465.7937,-757.9522 465.7937,-757.9522 727.3091,-693.4033 727.3091,-693.4033 733.1342,-691.9655 744.7846,-691.9655 750.6098,-693.4033 750.6098,-693.4033 1012.1252,-757.9522 1012.1252,-757.9522 1017.9503,-759.39 1017.9503,-762.2656 1012.1252,-763.7034 1012.1252,-763.7034 750.6098,-828.2524 750.6098,-828.2524 744.7846,-829.6902 733.1342,-829.6902 727.3091,-828.2524"/>
<text text-anchor="middle" x="738.9594" y="-754.2278" font-family="ING Me" font-size="22.00" fill="#ffffff">OrderHasUnavailableItems</text>
</g>
<!-- OrderHasUnavailableItems&#45;&gt;CancelOrder -->
<g id="edge2" class="edge">
<title>OrderHasUnavailableItems-&gt;CancelOrder</title>
<path fill="none" stroke="#000000" d="M715.3949,-696.0702C688.9489,-611.7931 656.8234,-462.4556 714.9594,-353.6 728.1287,-328.9415 749.8246,-308.9963 773.0171,-293.3305"/>
<polygon fill="#000000" stroke="#000000" points="775.1321,-296.1305 781.6164,-287.7517 771.3223,-290.258 775.1321,-296.1305"/>
</g>
<!-- unavailableProductIds -->
<g id="node10" class="node">
<title>unavailableProductIds</title>
<ellipse fill="#ff6200" stroke="#ff6200" cx="873.9594" cy="-504.0139" rx="150.3279" ry="150.3279"/>
<text text-anchor="middle" x="873.9594" y="-497.4139" font-family="ING Me" font-size="22.00" fill="#ffffff">unavailableProductIds</text>
</g>
<!-- OrderHasUnavailableItems&#45;&gt;unavailableProductIds -->
<g id="edge17" class="edge">
<title>OrderHasUnavailableItems-&gt;unavailableProductIds</title>
<path fill="none" stroke="#000000" d="M771.8115,-698.3325C780.2291,-682.3196 789.6329,-664.4304 799.234,-646.166"/>
<polygon fill="#000000" stroke="#000000" points="802.4046,-647.6564 803.9596,-637.1763 796.2085,-644.3993 802.4046,-647.6564"/>
</g>
<!-- address -->
<g id="node4" class="node">
<title>address</title>
<ellipse fill="#ff6200" stroke="#ff6200" cx="57.9594" cy="-925.1873" rx="57.9189" ry="57.9189"/>
<text text-anchor="middle" x="57.9594" y="-918.5873" font-family="ING Me" font-size="22.00" fill="#ffffff">address</text>
</g>
<!-- address&#45;&gt;ShipOrder -->
<g id="edge3" class="edge">
<title>address-&gt;ShipOrder</title>
<path fill="none" stroke="#000000" d="M35.6095,-871.3577C18.7549,-822.3745 2.3737,-748.9925 26.9594,-690.4278 49.0951,-637.6993 94.2282,-592.3884 134.9523,-559.6452"/>
<polygon fill="#000000" stroke="#000000" points="137.3516,-562.2102 143.0302,-553.2656 133.0132,-556.7167 137.3516,-562.2102"/>
</g>
<!-- OrderShipped -->
<g id="node13" class="node">
<title>OrderShipped</title>
<path fill="#767676" stroke="#767676" d="M205.8964,-312.8517C205.8964,-312.8517 60.7132,-251.8485 60.7132,-251.8485 55.1817,-249.5242 55.1817,-244.8758 60.7132,-242.5515 60.7132,-242.5515 205.8964,-181.5483 205.8964,-181.5483 211.4279,-179.2241 222.491,-179.2241 228.0225,-181.5483 228.0225,-181.5483 373.2056,-242.5515 373.2056,-242.5515 378.7371,-244.8758 378.7371,-249.5242 373.2056,-251.8485 373.2056,-251.8485 228.0225,-312.8517 228.0225,-312.8517 222.491,-315.1759 211.4279,-315.1759 205.8964,-312.8517"/>
<text text-anchor="middle" x="216.9594" y="-240.6" font-family="ING Me" font-size="22.00" fill="#ffffff">OrderShipped</text>
</g>
<!-- ShipOrder&#45;&gt;OrderShipped -->
<g id="edge16" class="edge">
<title>ShipOrder-&gt;OrderShipped</title>
<path fill="none" stroke="#000000" d="M216.9594,-454.8015C216.9594,-418.8764 216.9594,-369.3828 216.9594,-327.7323"/>
<polygon fill="#000000" stroke="#000000" points="220.4595,-327.6017 216.9594,-317.6017 213.4595,-327.6017 220.4595,-327.6017"/>
</g>
<!-- CheckStock&#45;&gt;OrderHasUnavailableItems -->
<g id="edge14" class="edge">
<title>CheckStock-&gt;OrderHasUnavailableItems</title>
<path fill="none" stroke="#000000" d="M380.2737,-892.4202C447.4692,-867.7679 540.3846,-833.6797 614.8098,-806.3751"/>
<polygon fill="#000000" stroke="#000000" points="616.0717,-809.6403 624.2543,-802.9101 613.6607,-803.0686 616.0717,-809.6403"/>
</g>
<!-- SufficientStock -->
<g id="node9" class="node">
<title>SufficientStock</title>
<path fill="#767676" stroke="#767676" d="M205.7758,-826.7775C205.7758,-826.7775 47.4233,-765.1783 47.4233,-765.1783 41.8315,-763.0031 41.8315,-758.6526 47.4233,-756.4774 47.4233,-756.4774 205.7758,-694.8781 205.7758,-694.8781 211.3676,-692.7029 222.5512,-692.7029 228.1431,-694.8781 228.1431,-694.8781 386.4955,-756.4774 386.4955,-756.4774 392.0873,-758.6526 392.0873,-763.0031 386.4955,-765.1783 386.4955,-765.1783 228.1431,-826.7775 228.1431,-826.7775 222.5512,-828.9528 211.3676,-828.9528 205.7758,-826.7775"/>
<text text-anchor="middle" x="216.9594" y="-754.2278" font-family="ING Me" font-size="22.00" fill="#ffffff">SufficientStock</text>
</g>
<!-- CheckStock&#45;&gt;SufficientStock -->
<g id="edge6" class="edge">
<title>CheckStock-&gt;SufficientStock</title>
<path fill="none" stroke="#000000" d="M268.757,-875.874C262.3052,-861.5442 255.1348,-845.6182 248.2364,-830.2963"/>
<polygon fill="#000000" stroke="#000000" points="251.2821,-828.5355 243.9851,-820.8539 244.8992,-831.4093 251.2821,-828.5355"/>
</g>
<!-- OrderPlaced -->
<g id="node7" class="node">
<title>OrderPlaced</title>
<path fill="#d5d5d5" stroke="#767676" stroke-width="2" d="M338.0446,-1353.4418C338.0446,-1353.4418 206.0018,-1293.115 206.0018,-1293.115 200.5444,-1290.6217 200.5444,-1285.635 206.0018,-1283.1417 206.0018,-1283.1417 338.0446,-1222.8149 338.0446,-1222.8149 343.502,-1220.3215 354.4168,-1220.3215 359.8742,-1222.8149 359.8742,-1222.8149 491.917,-1283.1417 491.917,-1283.1417 497.3744,-1285.635 497.3744,-1290.6217 491.917,-1293.115 491.917,-1293.115 359.8742,-1353.4418 359.8742,-1353.4418 354.4168,-1355.9351 343.502,-1355.9351 338.0446,-1353.4418"/>
<text text-anchor="middle" x="348.9594" y="-1281.5283" font-family="ING Me" font-size="22.00" fill="#000000">OrderPlaced</text>
</g>
<!-- OrderPlaced&#45;&gt;orderId -->
<g id="edge11" class="edge">
<title>OrderPlaced-&gt;orderId</title>
<path fill="none" stroke="#000000" d="M373.3227,-1228.7418C381.9582,-1207.6923 391.6957,-1183.9568 400.426,-1162.6764"/>
<polygon fill="#000000" stroke="#000000" points="403.6713,-1163.9872 404.2287,-1153.407 397.1951,-1161.3303 403.6713,-1163.9872"/>
</g>
<!-- OrderPlaced&#45;&gt;address -->
<g id="edge4" class="edge">
<title>OrderPlaced-&gt;address</title>
<path fill="none" stroke="#000000" d="M275.3309,-1251.3517C244.8668,-1233.4635 210.9086,-1209.7397 185.9594,-1181.7283 135.7565,-1125.3638 100.1158,-1045.757 79.4011,-990.2217"/>
<polygon fill="#000000" stroke="#000000" points="82.5608,-988.6722 75.8313,-980.489 75.9889,-991.0827 82.5608,-988.6722"/>
</g>
<!-- productIds -->
<g id="node11" class="node">
<title>productIds</title>
<ellipse fill="#ff6200" stroke="#ff6200" cx="272.9594" cy="-1100.4375" rx="77.6812" ry="77.6812"/>
<text text-anchor="middle" x="272.9594" y="-1093.8375" font-family="ING Me" font-size="22.00" fill="#ffffff">productIds</text>
</g>
<!-- OrderPlaced&#45;&gt;productIds -->
<g id="edge15" class="edge">
<title>OrderPlaced-&gt;productIds</title>
<path fill="none" stroke="#000000" d="M324.9125,-1228.7418C318.9344,-1213.978 312.4212,-1197.8928 306.0912,-1182.2602"/>
<polygon fill="#000000" stroke="#000000" points="309.1774,-1180.5564 302.18,-1172.601 302.6891,-1183.1836 309.1774,-1180.5564"/>
</g>
<!-- customerId -->
<g id="node12" class="node">
<title>customerId</title>
<ellipse fill="#ff6200" stroke="#ff6200" cx="581.9594" cy="-1100.4375" rx="81.0822" ry="81.0822"/>
<text text-anchor="middle" x="581.9594" y="-1093.8375" font-family="ING Me" font-size="22.00" fill="#ffffff">customerId</text>
</g>
<!-- OrderPlaced&#45;&gt;customerId -->
<g id="edge13" class="edge">
<title>OrderPlaced-&gt;customerId</title>
<path fill="none" stroke="#000000" d="M409.4141,-1245.1061C435.2686,-1226.2078 465.5254,-1203.4185 491.9594,-1181.7283 499.4061,-1175.618 507.0656,-1169.0954 514.6239,-1162.5031"/>
<polygon fill="#000000" stroke="#000000" points="516.9361,-1165.1306 522.1369,-1155.9001 512.315,-1159.8727 516.9361,-1165.1306"/>
</g>
<!-- SufficientStock&#45;&gt;ShipOrder -->
<g id="edge10" class="edge">
<title>SufficientStock-&gt;ShipOrder</title>
<path fill="none" stroke="#000000" d="M216.9594,-690.3126C216.9594,-650.5439 216.9594,-601.4051 216.9594,-563.5806"/>
<polygon fill="#000000" stroke="#000000" points="220.4595,-563.2293 216.9594,-553.2293 213.4595,-563.2294 220.4595,-563.2293"/>
</g>
<!-- unavailableProductIds&#45;&gt;CancelOrder -->
<g id="edge8" class="edge">
<title>unavailableProductIds-&gt;CancelOrder</title>
<path fill="none" stroke="#000000" d="M873.9594,-353.5099C873.9594,-337.0366 873.9594,-321.0636 873.9594,-306.7197"/>
<polygon fill="#000000" stroke="#000000" points="877.4595,-306.5791 873.9594,-296.5791 870.4595,-306.5792 877.4595,-306.5791"/>
</g>
<!-- productIds&#45;&gt;CheckStock -->
<g id="edge9" class="edge">
<title>productIds-&gt;CheckStock</title>
<path fill="none" stroke="#000000" d="M280.9331,-1022.8049C282.2481,-1010.0014 283.5928,-996.9097 284.8528,-984.6422"/>
<polygon fill="#000000" stroke="#000000" points="288.3486,-984.8612 285.8888,-974.5559 281.3853,-984.1459 288.3486,-984.8612"/>
</g>
</g>
</svg>