<svg width="1262pt" height="1786pt"
 viewBox="0.00 0.00 1261.87 1786.04" xmlns="http://www.w3.org/2000/svg" xmlns:xlink="http://www.w3.org/1999/xlink">
<g id="graph0" class="graph" transform="scale(1 1) rotate(0) translate(14.4 1771.6414)">
<title>%3</title>
<polygon fill="#ffffff" stroke="transparent" points="-14.4,14.4 -14.4,-1771.6414 1247.4684,-1771.6414 1247.4684,14.4 -14.4,14.4"/>
<!-- SendInvoice -->
<g id="node1" class="node">
<title>SendInvoice</title>
<path fill="#3b823a" stroke="#3b823a" stroke-width="2" d="M958.8838,-293.7575C958.8838,-293.7575 789.7119,-293.7575 789.7119,-293.7575 783.7119,-293.7575 777.7119,-287.7575 777.7119,-281.7575 777.7119,-281.7575 777.7119,-211.7575 777.7119,-211.7575 777.7119,-205.7575 783.7119,-199.7575 789.7119,-199.7575 789.7119,-199.7575 958.8838,-199.7575 958.8838,-199.7575 964.8838,-199.7575 970.8838,-205.7575 970.8838,-211.7575 970.8838,-211.7575 970.8838,-281.7575 970.8838,-281.7575 970.8838,-287.7575 964.8838,-293.7575 958.8838,-293.7575"/>
<text text-anchor="middle" x="874.2979" y="-240.1575" font-family="ING Me" font-size="22.00" fill="#ffffff">SendInvoice</text>
</g>
<!-- InvoiceWasSent -->
<g id="node2" class="node">
<title>InvoiceWasSent</title>
<path fill="#3b823a" stroke="#3b823a" d="M862.8896,-128.2783C862.8896,-128.2783 683.3916,-69.7217 683.3916,-69.7217 677.6874,-67.8608 677.6874,-64.1392 683.3916,-62.2783 683.3916,-62.2783 862.8896,-3.7217 862.8896,-3.7217 868.5937,-1.8608 880.002,-1.8608 885.7061,-3.7217 885.7061,-3.7217 1065.2041,-62.2783 1065.2041,-62.2783 1070.9083,-64.1392 1070.9083,-67.8608 1065.2041,-69.7217 1065.2041,-69.7217 885.7061,-128.2783 885.7061,-128.2783 880.002,-130.1392 868.5937,-130.1392 862.8896,-128.2783"/>
<text text-anchor="middle" x="874.2979" y="-59.4" font-family="ING Me" font-size="22.00" fill="#ffffff">InvoiceWasSent</text>
</g>
<!-- SendInvoice&#45;&gt;InvoiceWasSent -->
<g id="edge1" class="edge">
<title>SendInvoice&#45;&gt;InvoiceWasSent</title>
<path fill="none" stroke="#000000" d="M874.2979,-199.7374C874.2979,-182.1892 874.2979,-161.7829 874.2979,-142.2753"/>
<polygon fill="#000000" stroke="#000000" points="877.798,-142.1759 874.2979,-132.1759 870.798,-142.176 877.798,-142.1759"/>
</g>
<!-- ValidateOrder -->
<g id="node3" class="node">
<title>ValidateOrder</title>
<path fill="#3b823a" stroke="#3b823a" stroke-width="2" d="M395.4141,-1457.9823C395.4141,-1457.9823 213.1816,-1457.9823 213.1816,-1457.9823 207.1816,-1457.9823 201.1816,-1451.9823 201.1816,-1445.9823 201.1816,-1445.9823 201.1816,-1375.9823 201.1816,-1375.9823 201.1816,-1369.9823 207.1816,-1363.9823 213.1816,-1363.9823 213.1816,-1363.9823 395.4141,-1363.9823 395.4141,-1363.9823 401.4141,-1363.9823 407.4141,-1369.9823 407.4141,-1375.9823 407.4141,-1375.9823 407.4141,-1445.9823 407.4141,-1445.9823 407.4141,-1451.9823 401.4141,-1457.9823 395.4141,-1457.9823"/>
<text text-anchor="middle" x="304.2979" y="-1404.3823" font-family="ING Me" font-size="22.00" fill="#ffffff">ValidateOrder</text>
</g>
<!-- Valid -->
<g id="node4" class="node">
<title>Valid</title>
<path fill="#3b823a" stroke="#3b823a" d="M81.5803,-1320.9418C81.5803,-1320.9418 9.9193,-1269.0227 9.9193,-1269.0227 5.0605,-1265.5025 5.0605,-1258.462 9.9193,-1254.9418 9.9193,-1254.9418 81.5803,-1203.0227 81.5803,-1203.0227 86.4391,-1199.5025 96.1566,-1199.5025 101.0154,-1203.0227 101.0154,-1203.0227 172.6764,-1254.9418 172.6764,-1254.9418 177.5352,-1258.462 177.5352,-1265.5025 172.6764,-1269.0227 172.6764,-1269.0227 101.0154,-1320.9418 101.0154,-1320.9418 96.1566,-1324.462 86.4391,-1324.462 81.5803,-1320.9418"/>
<text text-anchor="middle" x="91.2979" y="-1255.3823" font-family="ING Me" font-size="22.00" fill="#ffffff">Valid</text>
</g>
<!-- ValidateOrder&#45;&gt;Valid -->
<g id="edge2" class="edge">
<title>ValidateOrder&#45;&gt;Valid</title>
<path fill="none" stroke="#000000" d="M236.9033,-1363.8377C207.6332,-1343.3624 173.7866,-1319.6857 146.0966,-1300.3157"/>
<polygon fill="#000000" stroke="#000000" points="147.913,-1297.315 137.7127,-1294.4508 143.9006,-1303.0509 147.913,-1297.315"/>
</g>
<!-- Failed -->
<g id="node11" class="node">
<title>Failed</title>
<path fill="#767676" stroke="#767676" d="M294.1704,-1321.5453C294.1704,-1321.5453 210.5854,-1268.4192 210.5854,-1268.4192 205.5217,-1265.2007 205.5217,-1258.7638 210.5854,-1255.5453 210.5854,-1255.5453 294.1704,-1202.4192 294.1704,-1202.4192 299.2341,-1199.2007 309.3616,-1199.2007 314.4253,-1202.4192 314.4253,-1202.4192 398.0103,-1255.5453 398.0103,-1255.5453 403.074,-1258.7638 403.074,-1265.2007 398.0103,-1268.4192 398.0103,-1268.4192 314.4253,-1321.5453 314.4253,-1321.5453 309.3616,-1324.7638 299.2341,-1324.7638 294.1704,-1321.5453"/>
<text text-anchor="middle" x="304.2979" y="-1255.3823" font-family="ING Me" font-size="22.00" fill="#ffffff">Failed</text>
</g>
<!-- ValidateOrder&#45;&gt;Failed -->
<g id="edge3" class="edge">
<title>ValidateOrder&#45;&gt;Failed</title>
<path fill="none" stroke="#000000" d="M304.2979,-1363.8377C304.2979,-1355.6876 304.2979,-1347.0301 304.2979,-1338.339"/>
<polygon fill="#000000" stroke="#000000" points="307.7979,-1338.1492 304.2979,-1328.1493 300.7979,-1338.1493 307.7979,-1338.1492"/>
</g>
<!-- ManufactureGoods -->
<g id="node5" class="node">
<title>ManufactureGoods</title>
<path fill="#3b823a" stroke="#3b823a" stroke-width="2" d="M553.9053,-1159.9823C553.9053,-1159.9823 318.6904,-1159.9823 318.6904,-1159.9823 312.6904,-1159.9823 306.6904,-1153.9823 306.6904,-1147.9823 306.6904,-1147.9823 306.6904,-1077.9823 306.6904,-1077.9823 306.6904,-1071.9823 312.6904,-1065.9823 318.6904,-1065.9823 318.6904,-1065.9823 553.9053,-1065.9823 553.9053,-1065.9823 559.9053,-1065.9823 565.9053,-1071.9823 565.9053,-1077.9823 565.9053,-1077.9823 565.9053,-1147.9823 565.9053,-1147.9823 565.9053,-1153.9823 559.9053,-1159.9823 553.9053,-1159.9823"/>
<text text-anchor="middle" x="436.2979" y="-1106.3823" font-family="ING Me" font-size="22.00" fill="#ffffff">ManufactureGoods</text>
</g>
<!-- Valid&#45;&gt;ManufactureGoods -->
<g id="edge4" class="edge">
<title>Valid&#45;&gt;ManufactureGoods</title>
<path fill="none" stroke="#000000" d="M136.627,-1228.5107C153.2666,-1217.1944 172.6128,-1205.1239 191.2979,-1195.9823 224.4839,-1179.7461 261.6414,-1165.3739 296.7909,-1153.3443"/>
<polygon fill="#000000" stroke="#000000" points="298.2935,-1156.5311 306.6467,-1150.0138 296.0525,-1149.8995 298.2935,-1156.5311"/>
</g>
<!-- GoodsManufactured -->
<g id="node6" class="node">
<title>GoodsManufactured</title>
<path fill="#3b823a" stroke="#3b823a" d="M424.7168,-1026.8392C424.7168,-1026.8392 204.6933,-967.1253 204.6933,-967.1253 198.9027,-965.5538 198.9027,-962.4107 204.6933,-960.8392 204.6933,-960.8392 424.7168,-901.1253 424.7168,-901.1253 430.5073,-899.5538 442.0884,-899.5538 447.8789,-901.1253 447.8789,-901.1253 667.9024,-960.8392 667.9024,-960.8392 673.693,-962.4107 673.693,-965.5538 667.9024,-967.1253 667.9024,-967.1253 447.8789,-1026.8392 447.8789,-1026.8392 442.0884,-1028.4107 430.5073,-1028.4107 424.7168,-1026.8392"/>
<text text-anchor="middle" x="436.2979" y="-957.3823" font-family="ING Me" font-size="22.00" fill="#ffffff">GoodsManufactured</text>
</g>
<!-- ManufactureGoods&#45;&gt;GoodsManufactured -->
<g id="edge5" class="edge">
<title>ManufactureGoods&#45;&gt;GoodsManufactured</title>
<path fill="none" stroke="#000000" d="M436.2979,-1065.8377C436.2979,-1057.6876 436.2979,-1049.0301 436.2979,-1040.339"/>
<polygon fill="#000000" stroke="#000000" points="439.7979,-1040.1492 436.2979,-1030.1493 432.7979,-1040.1493 439.7979,-1040.1492"/>
</g>
<!-- goods -->
<g id="node7" class="node">
<title>goods</title>
<ellipse fill="#3b823a" stroke="#3b823a" cx="514.2979" cy="-760.7486" rx="53.8981" ry="53.8981"/>
<text text-anchor="middle" x="514.2979" y="-754.1486" font-family="ING Me" font-size="22.00" fill="#ffffff">goods</text>
</g>
<!-- GoodsManufactured&#45;&gt;goods -->
<g id="edge6" class="edge">
<title>GoodsManufactured&#45;&gt;goods</title>
<path fill="none" stroke="#000000" d="M459.2785,-904.1047C469.4043,-877.7215 481.2737,-846.7949 491.391,-820.4339"/>
<polygon fill="#000000" stroke="#000000" points="494.717,-821.5355 495.0326,-810.9454 488.1818,-819.0273 494.717,-821.5355"/>
</g>
<!-- ShipGoods -->
<g id="node8" class="node">
<title>ShipGoods</title>
<path fill="#3b823a" stroke="#3b823a" stroke-width="2" d="M747.6485,-623.5149C747.6485,-623.5149 590.9472,-623.5149 590.9472,-623.5149 584.9472,-623.5149 578.9472,-617.5149 578.9472,-611.5149 578.9472,-611.5149 578.9472,-541.5149 578.9472,-541.5149 578.9472,-535.5149 584.9472,-529.5149 590.9472,-529.5149 590.9472,-529.5149 747.6485,-529.5149 747.6485,-529.5149 753.6485,-529.5149 759.6485,-535.5149 759.6485,-541.5149 759.6485,-541.5149 759.6485,-611.5149 759.6485,-611.5149 759.6485,-617.5149 753.6485,-623.5149 747.6485,-623.5149"/>
<text text-anchor="middle" x="669.2979" y="-569.9149" font-family="ING Me" font-size="22.00" fill="#ffffff">ShipGoods</text>
</g>
<!-- goods&#45;&gt;ShipGoods -->
<g id="edge7" class="edge">
<title>goods&#45;&gt;ShipGoods</title>
<path fill="none" stroke="#000000" d="M549.0829,-719.403C570.9478,-693.4142 599.4095,-659.5845 623.1501,-631.3664"/>
<polygon fill="#000000" stroke="#000000" points="625.9519,-633.4727 629.7116,-623.5674 620.5954,-628.9662 625.9519,-633.4727"/>
</g>
<!-- GoodsShipped -->
<g id="node9" class="node">
<title>GoodsShipped</title>
<path fill="#3b823a" stroke="#3b823a" d="M657.9648,-489.5702C657.9648,-489.5702 491.0176,-431.4597 491.0176,-431.4597 485.3511,-429.4873 485.3511,-425.5425 491.0176,-423.5702 491.0176,-423.5702 657.9648,-365.4597 657.9648,-365.4597 663.6313,-363.4873 674.9644,-363.4873 680.6309,-365.4597 680.6309,-365.4597 847.5781,-423.5702 847.5781,-423.5702 853.2446,-425.5425 853.2446,-429.4873 847.5781,-431.4597 847.5781,-431.4597 680.6309,-489.5702 680.6309,-489.5702 674.9644,-491.5425 663.6313,-491.5425 657.9648,-489.5702"/>
<text text-anchor="middle" x="669.2979" y="-420.9149" font-family="ING Me" font-size="22.00" fill="#ffffff">GoodsShipped</text>
</g>
<!-- ShipGoods&#45;&gt;GoodsShipped -->
<g id="edge8" class="edge">
<title>ShipGoods&#45;&gt;GoodsShipped</title>
<path fill="none" stroke="#000000" d="M669.2979,-529.3704C669.2979,-521.2202 669.2979,-512.5628 669.2979,-503.8717"/>
<polygon fill="#000000" stroke="#000000" points="672.7979,-503.6819 669.2979,-493.682 665.7979,-503.682 672.7979,-503.6819"/>
</g>
<!-- GoodsShipped&#45;&gt;SendInvoice -->
<g id="edge9" class="edge">
<title>GoodsShipped&#45;&gt;SendInvoice</title>
<path fill="none" stroke="#000000" d="M723.1592,-380.023C750.8192,-355.634 784.6308,-325.8208 813.2549,-300.5817"/>
<polygon fill="#000000" stroke="#000000" points="815.6104,-303.1711 820.7962,-293.9322 810.9808,-297.9206 815.6104,-303.1711"/>
</g>
<!-- trackingId -->
<g id="node10" class="node">
<title>trackingId</title>
<ellipse fill="#3b823a" stroke="#3b823a" cx="669.2979" cy="-246.7575" rx="78.5157" ry="78.5157"/>
<text text-anchor="middle" x="669.2979" y="-240.1575" font-family="ING Me" font-size="22.00" fill="#ffffff">trackingId</text>
</g>
<!-- GoodsShipped&#45;&gt;trackingId -->
<g id="edge10" class="edge">
<title>GoodsShipped&#45;&gt;trackingId</title>
<path fill="none" stroke="#000000" d="M669.2979,-361.4901C669.2979,-353.1541 669.2979,-344.5194 669.2979,-335.8997"/>
<polygon fill="#000000" stroke="#000000" points="672.798,-335.8066 669.2979,-325.8066 665.798,-335.8067 672.798,-335.8066"/>
</g>
<!-- CustomerInfoReceived -->
<g id="node12" class="node">
<title>CustomerInfoReceived</title>
<path fill="#3b823a" stroke="#3b823a" d="M953.6471,-1027.1081C953.6471,-1027.1081 709.4074,-966.8564 709.4074,-966.8564 703.582,-965.4193 703.582,-962.5452 709.4074,-961.1081 709.4074,-961.1081 953.6471,-900.8564 953.6471,-900.8564 959.4725,-899.4193 971.1232,-899.4193 976.9486,-900.8564 976.9486,-900.8564 1221.1883,-961.1081 1221.1883,-961.1081 1227.0137,-962.5452 1227.0137,-965.4193 1221.1883,-966.8564 1221.1883,-966.8564 976.9486,-1027.1081 976.9486,-1027.1081 971.1232,-1028.5452 959.4725,-1028.5452 953.6471,-1027.1081"/>
<text text-anchor="middle" x="965.2979" y="-957.3823" font-family="ING Me" font-size="22.00" fill="#ffffff">CustomerInfoReceived</text>
</g>
<!-- customerInfo -->
<g id="node13" class="node">
<title>customerInfo</title>
<ellipse fill="#3b823a" stroke="#3b823a" cx="887.2979" cy="-760.7486" rx="101.4679" ry="101.4679"/>
<text text-anchor="middle" x="887.2979" y="-754.1486" font-family="ING Me" font-size="22.00" fill="#ffffff">customerInfo</text>
</g>
<!-- CustomerInfoReceived&#45;&gt;customerInfo -->
<g id="edge11" class="edge">
<title>CustomerInfoReceived&#45;&gt;customerInfo</title>
<path fill="none" stroke="#000000" d="M942.1065,-903.5557C937.4449,-891.4098 932.4207,-878.3188 927.3724,-865.1653"/>
<polygon fill="#000000" stroke="#000000" points="930.5479,-863.6709 923.6971,-855.589 924.0126,-866.1791 930.5479,-863.6709"/>
</g>
<!-- customerInfo&#45;&gt;SendInvoice -->
<g id="edge12" class="edge">
<title>customerInfo&#45;&gt;SendInvoice</title>
<path fill="none" stroke="#000000" d="M884.7372,-659.5073C882.0504,-553.275 877.9216,-390.0337 875.7492,-304.1401"/>
<polygon fill="#000000" stroke="#000000" points="879.246,-303.9661 875.4942,-294.0578 872.2482,-304.1431 879.246,-303.9661"/>
</g>
<!-- customerInfo&#45;&gt;ShipGoods -->
<g id="edge13" class="edge">
<title>customerInfo&#45;&gt;ShipGoods</title>
<path fill="none" stroke="#000000" d="M809.8254,-695.276C784.5368,-673.9044 756.771,-650.4393 732.6466,-630.0516"/>
<polygon fill="#000000" stroke="#000000" points="734.8468,-627.3284 724.9498,-623.5468 730.3284,-632.6749 734.8468,-627.3284"/>
</g>
<!-- PaymentMade -->
<g id="node14" class="node">
<title>PaymentMade</title>
<path fill="#3b823a" stroke="#3b823a" d="M638.9908,-1323.9636C638.9908,-1323.9636 475.9037,-1266.0009 475.9037,-1266.0009 470.2501,-1263.9916 470.2501,-1259.9729 475.9037,-1257.9636 475.9037,-1257.9636 638.9908,-1200.0009 638.9908,-1200.0009 644.6443,-1197.9916 655.9514,-1197.9916 661.6049,-1200.0009 661.6049,-1200.0009 824.692,-1257.9636 824.692,-1257.9636 830.3456,-1259.9729 830.3456,-1263.9916 824.692,-1266.0009 824.692,-1266.0009 661.6049,-1323.9636 661.6049,-1323.9636 655.9514,-1325.9729 644.6443,-1325.9729 638.9908,-1323.9636"/>
<text text-anchor="middle" x="650.2979" y="-1255.3823" font-family="ING Me" font-size="22.00" fill="#ffffff">PaymentMade</text>
</g>
<!-- PaymentMade&#45;&gt;ManufactureGoods -->
<g id="edge14" class="edge">
<title>PaymentMade&#45;&gt;ManufactureGoods</title>
<path fill="none" stroke="#000000" d="M587.5368,-1218.2841C563.9353,-1201.8513 536.8486,-1182.9919 512.1791,-1165.8155"/>
<polygon fill="#000000" stroke="#000000" points="514.1207,-1162.9026 503.9141,-1160.0609 510.1209,-1168.6473 514.1207,-1162.9026"/>
</g>
<!-- order -->
<g id="node15" class="node">
<title>order</title>
<ellipse fill="#3b823a" stroke="#3b823a" cx="370.2979" cy="-1541.6118" rx="47.7595" ry="47.7595"/>
<text text-anchor="middle" x="370.2979" y="-1535.0118" font-family="ING Me" font-size="22.00" fill="#ffffff">order</text>
</g>
<!-- order&#45;&gt;ValidateOrder -->
<g id="edge16" class="edge">
<title>order&#45;&gt;ValidateOrder</title>
<path fill="none" stroke="#000000" d="M348.687,-1498.8388C343.6276,-1488.8251 338.1611,-1478.0056 332.8511,-1467.4958"/>
<polygon fill="#000000" stroke="#000000" points="335.8726,-1465.7148 328.2391,-1458.3677 329.6248,-1468.8715 335.8726,-1465.7148"/>
</g>
<!-- order&#45;&gt;ManufactureGoods -->
<g id="edge15" class="edge">
<title>order&#45;&gt;ManufactureGoods</title>
<path fill="none" stroke="#000000" d="M396.8263,-1501.9342C404.4838,-1488.5261 411.9416,-1473.1094 416.2979,-1457.9823 444.5265,-1359.9589 444.081,-1239.9625 440.5976,-1170.4173"/>
<polygon fill="#000000" stroke="#000000" points="444.0755,-1169.9121 440.0406,-1160.1157 437.0857,-1170.2901 444.0755,-1169.9121"/>
</g>
<!-- OrderPlaced -->
<g id="node16" class="node">
<title>OrderPlaced</title>
<path fill="#3b823a" stroke="#3b823a" d="M359.1332,-1752.8424C359.1332,-1752.8424 213.9566,-1695.6405 213.9566,-1695.6405 208.3743,-1693.4409 208.3743,-1689.0419 213.9566,-1686.8424 213.9566,-1686.8424 359.1332,-1629.6405 359.1332,-1629.6405 364.7155,-1627.4409 375.8802,-1627.4409 381.4625,-1629.6405 381.4625,-1629.6405 526.6391,-1686.8424 526.6391,-1686.8424 532.2214,-1689.0419 532.2214,-1693.4409 526.6391,-1695.6405 526.6391,-1695.6405 381.4625,-1752.8424 381.4625,-1752.8424 375.8802,-1755.0419 364.7155,-1755.0419 359.1332,-1752.8424"/>
<text text-anchor="middle" x="370.2979" y="-1684.6414" font-family="ING Me" font-size="22.00" fill="#ffffff">OrderPlaced</text>
</g>
<!-- OrderPlaced&#45;&gt;order -->
<g id="edge17" class="edge">
<title>OrderPlaced&#45;&gt;order</title>
<path fill="none" stroke="#000000" d="M370.2979,-1625.1762C370.2979,-1616.6048 370.2979,-1607.8781 370.2979,-1599.4544"/>
<polygon fill="#000000" stroke="#000000" points="373.798,-1599.3605 370.2979,-1589.3605 366.798,-1599.3606 373.798,-1599.3605"/>
</g>
</g>
</svg>
