<svg width="970pt" height="905pt" viewBox="0.00 0.00 969.80 904.80" xmlns="http://www.w3.org/2000/svg" xmlns:xlink="http://www.w3.org/1999/xlink">
    <g id="graph1" class="graph" transform="scale(1 1) rotate(0) translate(14.4 890.4)">
        <title>_anonymous_0</title>
        <polygon fill="white" stroke="white" points="-14.4,15.4 -14.4,-890.4 956.4,-890.4 956.4,15.4 -14.4,15.4"></polygon>
        <!-- ReserveItems -->
        <g id="node1" class="node"><title>ReserveItems</title>
            <polygon fill="#525199" stroke="#525199" stroke-width="2" points="610.292,-548.401 443.708,-548.401 431.708,-536.401 431.708,-461.599 443.708,-449.599 610.292,-449.599 622.292,-461.599 622.292,-536.401 610.292,-548.401"></polygon>
            <path fill="#525199" stroke="#525199" stroke-width="2" d="M443.708,-548.401C437.708,-548.401 431.708,-542.401 431.708,-536.401"></path>
            <path fill="#525199" stroke="#525199" stroke-width="2" d="M431.708,-461.599C431.708,-455.599 437.708,-449.599 443.708,-449.599"></path>
            <path fill="#525199" stroke="#525199" stroke-width="2" d="M610.292,-449.599C616.292,-449.599 622.292,-455.599 622.292,-461.599"></path>
            <path fill="#525199" stroke="#525199" stroke-width="2" d="M622.292,-536.401C622.292,-542.401 616.292,-548.401 610.292,-548.401"></path>
            <polyline fill="none" stroke="#525199" stroke-width="2" points="610.292,-548.401 443.708,-548.401 "></polyline>
            <path fill="none" stroke="#525199" stroke-width="2" d="M443.708,-548.401C437.708,-548.401 431.708,-542.401 431.708,-536.401"></path>
            <polyline fill="none" stroke="#525199" stroke-width="2" points="431.708,-536.401 431.708,-461.599 "></polyline>
            <path fill="none" stroke="#525199" stroke-width="2" d="M431.708,-461.599C431.708,-455.599 437.708,-449.599 443.708,-449.599"></path>
            <polyline fill="none" stroke="#525199" stroke-width="2" points="443.708,-449.599 610.292,-449.599 "></polyline>
            <path fill="none" stroke="#525199" stroke-width="2" d="M610.292,-449.599C616.292,-449.599 622.292,-455.599 622.292,-461.599"></path>
            <polyline fill="none" stroke="#525199" stroke-width="2" points="622.292,-461.599 622.292,-536.401 "></polyline>
            <path fill="none" stroke="#525199" stroke-width="2" d="M622.292,-536.401C622.292,-542.401 616.292,-548.401 610.292,-548.401"></path>
            <text text-anchor="middle" x="527" y="-492.4" font-family="ING Me" font-size="22.00" fill="white">ReserveItems</text>
        </g>
        <!-- OrderHadUnavailableItems -->
        <g id="node3" class="node"><title>OrderHadUnavailableItems</title>
            <polygon fill="#767676" stroke="#767676" points="275.344,-410.447 11.5025,-345.854 11.5025,-340.146 275.344,-275.553 298.656,-275.553 562.498,-340.146 562.498,-345.854 298.656,-410.447 275.344,-410.447"></polygon>
            <path fill="#767676" stroke="#767676" d="M11.5025,-345.854C5.67457,-344.427 5.67457,-341.573 11.5025,-340.146"></path>
            <path fill="#767676" stroke="#767676" d="M275.344,-275.553C281.172,-274.127 292.828,-274.127 298.656,-275.553"></path>
            <path fill="#767676" stroke="#767676" d="M562.498,-340.146C568.325,-341.573 568.325,-344.427 562.498,-345.854"></path>
            <path fill="#767676" stroke="#767676" d="M298.656,-410.447C292.828,-411.873 281.172,-411.873 275.344,-410.447"></path>
            <polyline fill="none" stroke="#767676" points="275.344,-410.447 11.5025,-345.854 "></polyline>
            <path fill="none" stroke="#767676" d="M11.5025,-345.854C5.67457,-344.427 5.67457,-341.573 11.5025,-340.146"></path>
            <polyline fill="none" stroke="#767676" points="11.5025,-340.146 275.344,-275.553 "></polyline>
            <path fill="none" stroke="#767676" d="M275.344,-275.553C281.172,-274.127 292.828,-274.127 298.656,-275.553"></path>
            <polyline fill="none" stroke="#767676" points="298.656,-275.553 562.498,-340.146 "></polyline>
            <path fill="none" stroke="#767676" d="M562.498,-340.146C568.325,-341.573 568.325,-344.427 562.498,-345.854"></path>
            <polyline fill="none" stroke="#767676" points="562.498,-345.854 298.656,-410.447 "></polyline>
            <path fill="none" stroke="#767676" d="M298.656,-410.447C292.828,-411.873 281.172,-411.873 275.344,-410.447"></path>
            <text text-anchor="middle" x="287" y="-336.4" font-family="ING Me" font-size="22.00" fill="white">OrderHadUnavailableItems</text>
        </g>
        <!-- ReserveItems&#45;&gt;OrderHadUnavailableItems -->
        <g id="edge2" class="edge"><title>ReserveItems-&gt;OrderHadUnavailableItems</title>
            <path fill="none" stroke="black" d="M451.721,-449.696C427.02,-433.846 399.368,-416.103 373.879,-399.747"></path>
            <polygon fill="black" stroke="black" points="375.632,-396.714 365.326,-394.259 371.852,-402.605 375.632,-396.714"></polygon>
        </g>
        <!-- ItemsReserved -->
        <g id="node13" class="node"><title>ItemsReserved</title>
            <polygon fill="#767676" stroke="#767676" points="755.869,-408.818 603.549,-347.482 603.549,-338.518 755.869,-277.182 778.131,-277.182 930.451,-338.518 930.451,-347.482 778.131,-408.818 755.869,-408.818"></polygon>
            <path fill="#767676" stroke="#767676" d="M603.549,-347.482C597.983,-345.241 597.983,-340.759 603.549,-338.518"></path>
            <path fill="#767676" stroke="#767676" d="M755.869,-277.182C761.434,-274.941 772.566,-274.941 778.131,-277.182"></path>
            <path fill="#767676" stroke="#767676" d="M930.451,-338.518C936.017,-340.759 936.017,-345.241 930.451,-347.482"></path>
            <path fill="#767676" stroke="#767676" d="M778.131,-408.818C772.566,-411.059 761.434,-411.059 755.869,-408.818"></path>
            <polyline fill="none" stroke="#767676" points="755.869,-408.818 603.549,-347.482 "></polyline>
            <path fill="none" stroke="#767676" d="M603.549,-347.482C597.983,-345.241 597.983,-340.759 603.549,-338.518"></path>
            <polyline fill="none" stroke="#767676" points="603.549,-338.518 755.869,-277.182 "></polyline>
            <path fill="none" stroke="#767676" d="M755.869,-277.182C761.434,-274.941 772.566,-274.941 778.131,-277.182"></path>
            <polyline fill="none" stroke="#767676" points="778.131,-277.182 930.451,-338.518 "></polyline>
            <path fill="none" stroke="#767676" d="M930.451,-338.518C936.017,-340.759 936.017,-345.241 930.451,-347.482"></path>
            <polyline fill="none" stroke="#767676" points="930.451,-347.482 778.131,-408.818 "></polyline>
            <path fill="none" stroke="#767676" d="M778.131,-408.818C772.566,-411.059 761.434,-411.059 755.869,-408.818"></path>
            <text text-anchor="middle" x="767" y="-336.4" font-family="ING Me" font-size="22.00" fill="white">ItemsReserved</text>
        </g>
        <!-- ReserveItems&#45;&gt;ItemsReserved -->
        <g id="edge14" class="edge"><title>ReserveItems-&gt;ItemsReserved</title>
            <path fill="none" stroke="black" d="M602.279,-449.696C630.808,-431.39 663.273,-410.558 691.795,-392.257"></path>
            <polygon fill="black" stroke="black" points="693.985,-395.01 700.511,-386.664 690.205,-389.118 693.985,-395.01"></polygon>
        </g>
        <!-- reservedItems -->
        <g id="node2" class="node"><title>reservedItems</title>
            <ellipse fill="#ff6200" stroke="#ff6200" cx="767" cy="-118" rx="98.3281" ry="98.6043"></ellipse>
            <text text-anchor="middle" x="767" y="-111.4" font-family="ING Me" font-size="22.00" fill="white">reservedItems</text>
        </g>
        <!-- unavailableItems -->
        <g id="node4" class="node"><title>unavailableItems</title>
            <ellipse fill="#ff6200" stroke="#ff6200" cx="287" cy="-118" rx="117.364" ry="117.652"></ellipse>
            <text text-anchor="middle" x="287" y="-111.4" font-family="ING Me" font-size="22.00" fill="white">unavailableItems</text>
        </g>
        <!-- OrderHadUnavailableItems&#45;&gt;unavailableItems -->
        <g id="edge4" class="edge"><title>OrderHadUnavailableItems-&gt;unavailableItems</title>
            <path fill="none" stroke="black" d="M287,-272.664C287,-264.117 287,-255.184 287,-246.109"></path>
            <polygon fill="black" stroke="black" points="290.5,-245.817 287,-235.817 283.5,-245.817 290.5,-245.817"></polygon>
        </g>
        <!-- orderId -->
        <g id="node5" class="node"><title>orderId</title>
            <ellipse fill="#ff6200" stroke="#ff6200" cx="467" cy="-641" rx="57.1348" ry="57.1798"></ellipse>
            <text text-anchor="middle" x="467" y="-634.4" font-family="ING Me" font-size="22.00" fill="white">orderId</text>
        </g>
        <!-- orderId&#45;&gt;ReserveItems -->
        <g id="edge12" class="edge"><title>orderId-&gt;ReserveItems</title>
            <path fill="none" stroke="black" d="M489.171,-588.267C493.465,-578.248 497.989,-567.692 502.356,-557.502"></path>
            <polygon fill="black" stroke="black" points="505.59,-558.842 506.312,-548.272 499.156,-556.085 505.59,-558.842"></polygon>
        </g>
        <!-- OrderPlaced -->
        <g id="node6" class="node"><title>OrderPlaced</title>
            <polygon fill="#d5d5d5" stroke="#d5d5d5" stroke-width="2" points="516.091,-870.301 384.505,-809.999 384.505,-800.001 516.091,-739.699 537.909,-739.699 669.495,-800.001 669.495,-809.999 537.909,-870.301 516.091,-870.301"></polygon>
            <path fill="#d5d5d5" stroke="#d5d5d5" stroke-width="2" d="M384.505,-809.999C379.05,-807.5 379.05,-802.5 384.505,-800.001"></path>
            <path fill="#d5d5d5" stroke="#d5d5d5" stroke-width="2" d="M516.091,-739.699C521.545,-737.199 532.455,-737.199 537.909,-739.699"></path>
            <path fill="#d5d5d5" stroke="#d5d5d5" stroke-width="2" d="M669.495,-800.001C674.95,-802.5 674.95,-807.5 669.495,-809.999"></path>
            <path fill="#d5d5d5" stroke="#d5d5d5" stroke-width="2" d="M537.909,-870.301C532.455,-872.801 521.545,-872.801 516.091,-870.301"></path>
            <polyline fill="none" stroke="#767676" stroke-width="2" points="516.091,-870.301 384.505,-809.999 "></polyline>
            <path fill="none" stroke="#767676" stroke-width="2" d="M384.505,-809.999C379.05,-807.5 379.05,-802.5 384.505,-800.001"></path>
            <polyline fill="none" stroke="#767676" stroke-width="2" points="384.505,-800.001 516.091,-739.699 "></polyline>
            <path fill="none" stroke="#767676" stroke-width="2" d="M516.091,-739.699C521.545,-737.199 532.455,-737.199 537.909,-739.699"></path>
            <polyline fill="none" stroke="#767676" stroke-width="2" points="537.909,-739.699 669.495,-800.001 "></polyline>
            <path fill="none" stroke="#767676" stroke-width="2" d="M669.495,-800.001C674.95,-802.5 674.95,-807.5 669.495,-809.999"></path>
            <polyline fill="none" stroke="#767676" stroke-width="2" points="669.495,-809.999 537.909,-870.301 "></polyline>
            <path fill="none" stroke="#767676" stroke-width="2" d="M537.909,-870.301C532.455,-872.801 521.545,-872.801 516.091,-870.301"></path>
            <text text-anchor="middle" x="527" y="-798.4" font-family="ING Me" font-size="22.00">OrderPlaced</text>
        </g>
        <!-- OrderPlaced&#45;&gt;orderId -->
        <g id="edge8" class="edge"><title>OrderPlaced-&gt;orderId</title>
            <path fill="none" stroke="black" d="M504.999,-744.597C500.128,-731.445 494.953,-717.473 490.041,-704.212"></path>
            <polygon fill="black" stroke="black" points="493.275,-702.865 486.52,-694.703 486.711,-705.297 493.275,-702.865"></polygon>
        </g>
        <!-- items -->
        <g id="node10" class="node"><title>items</title>
            <ellipse fill="#ff6200" stroke="#ff6200" cx="587" cy="-641" rx="45.0248" ry="45.0331"></ellipse>
            <text text-anchor="middle" x="587" y="-634.4" font-family="ING Me" font-size="22.00" fill="white">items</text>
        </g>
        <!-- OrderPlaced&#45;&gt;items -->
        <g id="edge6" class="edge"><title>OrderPlaced-&gt;items</title>
            <path fill="none" stroke="black" d="M549.001,-744.597C555.264,-727.688 562.028,-709.424 568.089,-693.058"></path>
            <polygon fill="black" stroke="black" points="571.377,-694.26 571.568,-683.666 564.813,-691.828 571.377,-694.26"></polygon>
        </g>
        <!-- items&#45;&gt;ReserveItems -->
        <g id="edge10" class="edge"><title>items-&gt;ReserveItems</title>
            <path fill="none" stroke="black" d="M569.484,-599.13C563.948,-586.211 557.721,-571.682 551.776,-557.811"></path>
            <polygon fill="black" stroke="black" points="554.874,-556.154 547.718,-548.342 548.44,-558.912 554.874,-556.154"></polygon>
        </g>
        <!-- ItemsReserved&#45;&gt;reservedItems -->
        <g id="edge16" class="edge"><title>ItemsReserved-&gt;reservedItems</title>
            <path fill="none" stroke="black" d="M767,-272.664C767,-258.19 767,-242.605 767,-227.107"></path>
            <polygon fill="black" stroke="black" points="770.5,-226.948 767,-216.948 763.5,-226.948 770.5,-226.948"></polygon>
        </g>
    </g>
</svg>