<svg width="264pt" height="116pt"
 viewBox="0.00 0.00 263.87 116.00" xmlns="http://www.w3.org/2000/svg" xmlns:xlink="http://www.w3.org/1999/xlink">
<g id="graph0" class="graph" transform="scale(1 1) rotate(0) translate(4 112)">
<title>G</title>
<polygon fill="#ffffff" stroke="transparent" points="-4,4 -4,-112 259.8657,-112 259.8657,4 -4,4"/>
<!-- Compiler -->
<g id="node1" class="node">
<title>Compiler</title>
<ellipse fill="none" stroke="#000000" cx="45" cy="-90" rx="43.5233" ry="18"/>
<text text-anchor="middle" x="45" y="-85.8" font-family="Times,serif" font-size="14.00" fill="#000000">Compiler</text>
</g>
<!-- DSL -->
<g id="node2" class="node">
<title>DSL</title>
<ellipse fill="none" stroke="#000000" cx="27" cy="-18" rx="27" ry="18"/>
<text text-anchor="middle" x="27" y="-13.8" font-family="Times,serif" font-size="14.00" fill="#000000">DSL</text>
</g>
<!-- Compiler&#45;&gt;DSL -->
<g id="edge1" class="edge">
<title>Compiler&#45;&gt;DSL</title>
<path fill="none" stroke="#000000" d="M40.4578,-71.8314C38.4816,-63.9266 36.1218,-54.4872 33.9341,-45.7365"/>
<polygon fill="#000000" stroke="#000000" points="37.2993,-44.7659 31.4784,-35.9134 30.5083,-46.4637 37.2993,-44.7659"/>
</g>
<!-- Intermediate Language -->
<g id="node3" class="node">
<title>Intermediate Language</title>
<ellipse fill="none" stroke="#000000" cx="164" cy="-18" rx="91.7316" ry="18"/>
<text text-anchor="middle" x="164" y="-13.8" font-family="Times,serif" font-size="14.00" fill="#000000">Intermediate Language</text>
</g>
<!-- Compiler&#45;&gt;Intermediate Language -->
<g id="edge2" class="edge">
<title>Compiler&#45;&gt;Intermediate Language</title>
<path fill="none" stroke="#000000" d="M69.6569,-75.0816C86.2301,-65.0541 108.372,-51.6573 127.0401,-40.3623"/>
<polygon fill="#000000" stroke="#000000" points="128.8683,-43.347 135.6123,-35.1757 125.2446,-37.3579 128.8683,-43.347"/>
</g>
<!-- Runtime -->
<g id="node4" class="node">
<title>Runtime</title>
<ellipse fill="none" stroke="#000000" cx="164" cy="-90" rx="40.6335" ry="18"/>
<text text-anchor="middle" x="164" y="-85.8" font-family="Times,serif" font-size="14.00" fill="#000000">Runtime</text>
</g>
<!-- Runtime&#45;&gt;Intermediate Language -->
<g id="edge3" class="edge">
<title>Runtime&#45;&gt;Intermediate Language</title>
<path fill="none" stroke="#000000" d="M164,-71.8314C164,-64.131 164,-54.9743 164,-46.4166"/>
<polygon fill="#000000" stroke="#000000" points="167.5001,-46.4132 164,-36.4133 160.5001,-46.4133 167.5001,-46.4132"/>
</g>
</g>
</svg>
