<?xml version="1.0" encoding="UTF-8"?><svg xmlns="http://www.w3.org/2000/svg" xmlns:xlink="http://www.w3.org/1999/xlink" stroke-dasharray="none" shape-rendering="auto" font-family="'Dialog'" width="1085" text-rendering="auto" fill-opacity="1" contentScriptType="text/ecmascript" color-interpolation="auto" color-rendering="auto" preserveAspectRatio="xMidYMid meet" font-size="12" viewBox="0 0 1085 1338" fill="black" stroke="black" image-rendering="auto" stroke-miterlimit="10" zoomAndPan="magnify" version="1.0" stroke-linecap="square" stroke-linejoin="miter" contentStyleType="text/css" font-style="normal" height="1338" stroke-width="1" stroke-dashoffset="0" font-weight="normal" stroke-opacity="1">
    <!--Generated by the Batik Graphics2D SVG Generator-->
    <defs id="genericDefs"/>
    <g>
        <defs id="defs1">
            <clipPath clipPathUnits="userSpaceOnUse" id="clipPath1">
                <path d="M111 585 L153 585 L153 627 L111 627 L111 585 Z"/>
            </clipPath>
            <clipPath clipPathUnits="userSpaceOnUse" id="clipPath2">
                <path d="M9 489 L120 489 L120 509 L9 509 L9 489 Z"/>
            </clipPath>
            <clipPath clipPathUnits="userSpaceOnUse" id="clipPath3">
                <path d="M453 1185 L495 1185 L495 1227 L453 1227 L453 1185 Z"/>
            </clipPath>
            <clipPath clipPathUnits="userSpaceOnUse" id="clipPath4">
                <path d="M387 1089 L454 1089 L454 1109 L387 1109 L387 1089 Z"/>
            </clipPath>
            <clipPath clipPathUnits="userSpaceOnUse" id="clipPath5">
                <path d="M603 585 L645 585 L645 627 L603 627 L603 585 Z"/>
            </clipPath>
            <clipPath clipPathUnits="userSpaceOnUse" id="clipPath6">
                <path d="M573 489 L678 489 L678 509 L573 509 L573 489 Z"/>
            </clipPath>
            <clipPath clipPathUnits="userSpaceOnUse" id="clipPath7">
                <path d="M507 789 L549 789 L549 831 L507 831 L507 789 Z"/>
            </clipPath>
            <clipPath clipPathUnits="userSpaceOnUse" id="clipPath8">
                <path d="M423 687 L519 687 L519 707 L423 707 L423 687 Z"/>
            </clipPath>
            <clipPath clipPathUnits="userSpaceOnUse" id="clipPath9">
                <path d="M567 987 L609 987 L609 1029 L567 1029 L567 987 Z"/>
            </clipPath>
            <clipPath clipPathUnits="userSpaceOnUse" id="clipPath10">
                <path d="M483 885 L574 885 L574 905 L483 905 L483 885 Z"/>
            </clipPath>
            <clipPath clipPathUnits="userSpaceOnUse" id="clipPath11">
                <path d="M225 189 L267 189 L267 231 L225 231 L225 189 Z"/>
            </clipPath>
            <clipPath clipPathUnits="userSpaceOnUse" id="clipPath12">
                <path d="M171 87 L222 87 L222 107 L171 107 L171 87 Z"/>
            </clipPath>
            <clipPath clipPathUnits="userSpaceOnUse" id="clipPath13">
                <path d="M261 387 L303 387 L303 429 L261 429 L261 387 Z"/>
            </clipPath>
            <clipPath clipPathUnits="userSpaceOnUse" id="clipPath14">
                <path d="M171 285 L265 285 L265 305 L171 305 L171 285 Z"/>
            </clipPath>
            <clipPath clipPathUnits="userSpaceOnUse" id="clipPath15">
                <path d="M837 585 L879 585 L879 627 L837 627 L837 585 Z"/>
            </clipPath>
            <clipPath clipPathUnits="userSpaceOnUse" id="clipPath16">
                <path d="M939 489 L1076 489 L1076 509 L939 509 L939 489 Z"/>
            </clipPath>
            <clipPath clipPathUnits="userSpaceOnUse" id="clipPath17">
                <path d="M327 189 L369 189 L369 231 L327 231 L327 189 Z"/>
            </clipPath>
            <clipPath clipPathUnits="userSpaceOnUse" id="clipPath18">
                <path d="M375 87 L412 87 L412 107 L375 107 L375 87 Z"/>
            </clipPath>
            <clipPath clipPathUnits="userSpaceOnUse" id="clipPath19">
                <path d="M507 585 L549 585 L549 627 L507 627 L507 585 Z"/>
            </clipPath>
            <clipPath clipPathUnits="userSpaceOnUse" id="clipPath20">
                <path d="M417 489 L515 489 L515 509 L417 509 L417 489 Z"/>
            </clipPath>
            <clipPath clipPathUnits="userSpaceOnUse" id="clipPath21">
                <path d="M327 285 L369 285 L369 327 L327 327 L327 285 Z"/>
            </clipPath>
            <clipPath clipPathUnits="userSpaceOnUse" id="clipPath22">
                <path d="M423 189 L517 189 L517 209 L423 209 L423 189 Z"/>
            </clipPath>
            <clipPath clipPathUnits="userSpaceOnUse" id="clipPath23">
                <path d="M381 1287 L423 1287 L423 1329 L381 1329 L381 1287 Z"/>
            </clipPath>
            <clipPath clipPathUnits="userSpaceOnUse" id="clipPath24">
                <path d="M273 1185 L394 1185 L394 1205 L273 1205 L273 1185 Z"/>
            </clipPath>
            <clipPath clipPathUnits="userSpaceOnUse" id="clipPath25">
                <path d="M579 687 L621 687 L621 729 L579 729 L579 687 Z"/>
            </clipPath>
            <clipPath clipPathUnits="userSpaceOnUse" id="clipPath26">
                <path d="M351 585 L447 585 L447 605 L351 605 L351 585 Z"/>
            </clipPath>
            <clipPath clipPathUnits="userSpaceOnUse" id="clipPath27">
                <path d="M387 885 L429 885 L429 927 L387 927 L387 885 Z"/>
            </clipPath>
            <clipPath clipPathUnits="userSpaceOnUse" id="clipPath28">
                <path d="M351 789 L448 789 L448 809 L351 809 L351 789 Z"/>
            </clipPath>
            <clipPath clipPathUnits="userSpaceOnUse" id="clipPath29">
                <path d="M321 489 L363 489 L363 531 L321 531 L321 489 Z"/>
            </clipPath>
            <clipPath clipPathUnits="userSpaceOnUse" id="clipPath30">
                <path d="M363 387 L466 387 L466 407 L363 407 L363 387 Z"/>
            </clipPath>
            <clipPath clipPathUnits="userSpaceOnUse" id="clipPath31">
                <path d="M177 489 L219 489 L219 531 L177 531 L177 489 Z"/>
            </clipPath>
            <clipPath clipPathUnits="userSpaceOnUse" id="clipPath32">
                <path d="M27 387 L203 387 L203 407 L27 407 L27 387 Z"/>
            </clipPath>
            <clipPath clipPathUnits="userSpaceOnUse" id="clipPath33">
                <path d="M735 489 L777 489 L777 531 L735 531 L735 489 Z"/>
            </clipPath>
            <clipPath clipPathUnits="userSpaceOnUse" id="clipPath34">
                <path d="M609 387 L774 387 L774 407 L609 407 L609 387 Z"/>
            </clipPath>
            <clipPath clipPathUnits="userSpaceOnUse" id="clipPath35">
                <path d="M507 1089 L549 1089 L549 1131 L507 1131 L507 1089 Z"/>
            </clipPath>
            <clipPath clipPathUnits="userSpaceOnUse" id="clipPath36">
                <path d="M441 987 L508 987 L508 1007 L441 1007 L441 987 Z"/>
            </clipPath>
            <clipPath clipPathUnits="userSpaceOnUse" id="clipPath37">
                <path d="M837 489 L879 489 L879 531 L837 531 L837 489 Z"/>
            </clipPath>
            <clipPath clipPathUnits="userSpaceOnUse" id="clipPath38">
                <path d="M831 387 L1026 387 L1026 407 L831 407 L831 387 Z"/>
            </clipPath>
            <clipPath clipPathUnits="userSpaceOnUse" id="clipPath39">
                <path d="M279 87 L321 87 L321 129 L279 129 L279 87 Z"/>
            </clipPath>
            <clipPath clipPathUnits="userSpaceOnUse" id="clipPath40">
                <path d="M255 9 L336 9 L336 29 L255 29 L255 9 Z"/>
            </clipPath>
            <clipPath clipPathUnits="userSpaceOnUse" id="clipPath41">
                <path d="M633 885 L675 885 L675 927 L633 927 L633 885 Z"/>
            </clipPath>
            <clipPath clipPathUnits="userSpaceOnUse" id="clipPath42">
                <path d="M609 789 L738 789 L738 809 L609 809 L609 789 Z"/>
            </clipPath>
            <clipPath clipPathUnits="userSpaceOnUse" id="clipPath43">
                <path d="M-1 -1 L1086 -1 L1086 1339 L-1 1339 L-1 -1 Z"/>
            </clipPath>
            <clipPath clipPathUnits="userSpaceOnUse" id="clipPath44">
                <path d="M530 776 L549 776 L549 794 L530 794 L530 776 Z"/>
            </clipPath>
            <clipPath clipPathUnits="userSpaceOnUse" id="clipPath45">
                <path d="M609 678 L629 678 L629 693 L609 693 L609 678 Z"/>
            </clipPath>
            <clipPath clipPathUnits="userSpaceOnUse" id="clipPath46">
                <path d="M205 476 L223 476 L223 494 L205 494 L205 476 Z"/>
            </clipPath>
            <clipPath clipPathUnits="userSpaceOnUse" id="clipPath47">
                <path d="M322 475 L339 475 L339 494 L322 494 L322 475 Z"/>
            </clipPath>
            <clipPath clipPathUnits="userSpaceOnUse" id="clipPath48">
                <path d="M581 674 L600 674 L600 692 L581 692 L581 674 Z"/>
            </clipPath>
            <clipPath clipPathUnits="userSpaceOnUse" id="clipPath49">
                <path d="M851 571 L866 571 L866 590 L851 590 L851 571 Z"/>
            </clipPath>
            <clipPath clipPathUnits="userSpaceOnUse" id="clipPath50">
                <path d="M248 175 L265 175 L265 194 L248 194 L248 175 Z"/>
            </clipPath>
            <clipPath clipPathUnits="userSpaceOnUse" id="clipPath51">
                <path d="M329 176 L345 176 L345 195 L329 195 L329 176 Z"/>
            </clipPath>
            <clipPath clipPathUnits="userSpaceOnUse" id="clipPath52">
                <path d="M628 575 L648 575 L648 591 L628 591 L628 575 Z"/>
            </clipPath>
            <clipPath clipPathUnits="userSpaceOnUse" id="clipPath53">
                <path d="M601 672 L615 672 L615 692 L601 692 L601 672 Z"/>
            </clipPath>
            <clipPath clipPathUnits="userSpaceOnUse" id="clipPath54">
                <path d="M284 374 L302 374 L302 392 L284 392 L284 374 Z"/>
            </clipPath>
            <clipPath clipPathUnits="userSpaceOnUse" id="clipPath55">
                <path d="M341 271 L356 271 L356 290 L341 290 L341 271 Z"/>
            </clipPath>
            <clipPath clipPathUnits="userSpaceOnUse" id="clipPath56">
                <path d="M507 576 L527 576 L527 590 L507 590 L507 576 Z"/>
            </clipPath>
            <clipPath clipPathUnits="userSpaceOnUse" id="clipPath57">
                <path d="M134 572 L153 572 L153 590 L134 590 L134 572 Z"/>
            </clipPath>
            <clipPath clipPathUnits="userSpaceOnUse" id="clipPath58">
                <path d="M531 1075 L549 1075 L549 1094 L531 1094 L531 1075 Z"/>
            </clipPath>
            <clipPath clipPathUnits="userSpaceOnUse" id="clipPath59">
                <path d="M405 1274 L423 1274 L423 1292 L405 1292 L405 1274 Z"/>
            </clipPath>
            <clipPath clipPathUnits="userSpaceOnUse" id="clipPath60">
                <path d="M590 974 L608 974 L608 992 L590 992 L590 974 Z"/>
            </clipPath>
            <clipPath clipPathUnits="userSpaceOnUse" id="clipPath61">
                <path d="M628 874 L648 874 L648 890 L628 890 L628 874 Z"/>
            </clipPath>
            <clipPath clipPathUnits="userSpaceOnUse" id="clipPath62">
                <path d="M415 874 L434 874 L434 890 L415 890 L415 874 Z"/>
            </clipPath>
            <clipPath clipPathUnits="userSpaceOnUse" id="clipPath63">
                <path d="M476 1171 L494 1171 L494 1190 L476 1190 L476 1171 Z"/>
            </clipPath>
            <clipPath clipPathUnits="userSpaceOnUse" id="clipPath64">
                <path d="M323 273 L342 273 L342 290 L323 290 L323 273 Z"/>
            </clipPath>
        </defs>
        <g fill="white" font-family="'Tahoma'" stroke-linejoin="round" stroke="white" stroke-width="0" stroke-miterlimit="0">
            <circle r="19" clip-path="url(#clipPath1)" cx="131" cy="605" stroke="none"/>
        </g>
        <g fill="rgb(176,176,176)" stroke-width="1.1" font-family="'Tahoma'" stroke-linecap="butt" stroke="rgb(176,176,176)">
            <circle fill="none" r="19.5" clip-path="url(#clipPath1)" cx="131.5" cy="605.5"/>
            <rect x="10" y="490" clip-path="url(#clipPath2)" fill="white" width="109" height="18" stroke="none"/>
            <rect x="10" y="490" clip-path="url(#clipPath2)" fill="none" width="108" height="17" stroke="white" stroke-width="0.1"/>
            <text x="10" y="502" clip-path="url(#clipPath2)" fill="black" stroke="none" stroke-width="0.1" xml:space="preserve">unavailableItems</text>
            <circle clip-path="url(#clipPath3)" fill="white" r="19" cx="473" cy="1205" stroke="none" stroke-width="0.1"/>
            <circle fill="none" r="19.5" clip-path="url(#clipPath3)" cx="473.5" cy="1205.5"/>
            <rect x="388" y="1090" clip-path="url(#clipPath4)" fill="white" width="65" height="18" stroke="none"/>
            <rect x="388" y="1090" clip-path="url(#clipPath4)" fill="none" width="64" height="17" stroke="white" stroke-width="0.1"/>
            <text x="388" y="1102" clip-path="url(#clipPath4)" fill="black" stroke="none" stroke-width="0.1" xml:space="preserve">ShipItems</text>
            <circle clip-path="url(#clipPath5)" fill="white" r="19" cx="623" cy="605" stroke="none" stroke-width="0.1"/>
            <circle fill="none" r="19.5" clip-path="url(#clipPath5)" cx="623.5" cy="605.5"/>
            <rect x="574" y="490" clip-path="url(#clipPath6)" fill="white" width="103" height="18" stroke="none"/>
            <rect x="574" y="490" clip-path="url(#clipPath6)" fill="none" width="102" height="17" stroke="white" stroke-width="0.1"/>
            <text x="574" y="502" clip-path="url(#clipPath6)" fill="black" stroke="none" stroke-width="0.1" xml:space="preserve">shippingAddress</text>
            <circle clip-path="url(#clipPath7)" fill="white" r="19" cx="527" cy="809" stroke="none" stroke-width="0.1"/>
            <circle fill="none" r="19.5" clip-path="url(#clipPath7)" cx="527.5" cy="809.5"/>
            <rect x="424" y="688" clip-path="url(#clipPath8)" fill="white" width="94" height="18" stroke="none"/>
            <rect x="424" y="688" clip-path="url(#clipPath8)" fill="none" width="93" height="17" stroke="white" stroke-width="0.1"/>
            <text x="424" y="700" clip-path="url(#clipPath8)" fill="black" stroke="none" stroke-width="0.1" xml:space="preserve">MakePayment</text>
            <circle clip-path="url(#clipPath9)" fill="white" r="19" cx="587" cy="1007" stroke="none" stroke-width="0.1"/>
            <circle fill="none" r="19.5" clip-path="url(#clipPath9)" cx="587.5" cy="1007.5"/>
            <rect x="484" y="886" clip-path="url(#clipPath10)" fill="white" width="89" height="18" stroke="none"/>
            <rect x="484" y="886" clip-path="url(#clipPath10)" fill="none" width="88" height="17" stroke="white" stroke-width="0.1"/>
            <text x="484" y="898" clip-path="url(#clipPath10)" fill="black" stroke="none" stroke-width="0.1" xml:space="preserve">shippingOrder</text>
            <circle clip-path="url(#clipPath11)" fill="white" r="19" cx="245" cy="209" stroke="none" stroke-width="0.1"/>
            <circle fill="none" r="19.5" clip-path="url(#clipPath11)" cx="245.5" cy="209.5"/>
            <rect x="172" y="88" clip-path="url(#clipPath12)" fill="white" width="49" height="18" stroke="none"/>
            <rect x="172" y="88" clip-path="url(#clipPath12)" fill="none" width="48" height="17" stroke="white" stroke-width="0.1"/>
            <text x="172" y="100" clip-path="url(#clipPath12)" fill="black" stroke="none" stroke-width="0.1" xml:space="preserve">orderId</text>
            <circle clip-path="url(#clipPath13)" fill="white" r="19" cx="281" cy="407" stroke="none" stroke-width="0.1"/>
            <circle fill="none" r="19.5" clip-path="url(#clipPath13)" cx="281.5" cy="407.5"/>
            <rect x="172" y="286" clip-path="url(#clipPath14)" fill="white" width="92" height="18" stroke="none"/>
            <rect x="172" y="286" clip-path="url(#clipPath14)" fill="none" width="91" height="17" stroke="white" stroke-width="0.1"/>
            <text x="172" y="298" clip-path="url(#clipPath14)" fill="black" stroke="none" stroke-width="0.1" xml:space="preserve">ReserveItems</text>
            <circle clip-path="url(#clipPath15)" fill="white" r="19" cx="857" cy="605" stroke="none" stroke-width="0.1"/>
            <circle fill="none" r="19.5" clip-path="url(#clipPath15)" cx="857.5" cy="605.5"/>
            <rect x="940" y="490" clip-path="url(#clipPath16)" fill="white" width="135" height="18" stroke="none"/>
            <rect x="940" y="490" clip-path="url(#clipPath16)" fill="none" width="134" height="17" stroke="white" stroke-width="0.1"/>
            <text x="940" y="502" clip-path="url(#clipPath16)" fill="black" stroke="none" stroke-width="0.1" xml:space="preserve">paymentInformation</text>
            <circle clip-path="url(#clipPath17)" fill="white" r="19" cx="347" cy="209" stroke="none" stroke-width="0.1"/>
            <circle fill="none" r="19.5" clip-path="url(#clipPath17)" cx="347.5" cy="209.5"/>
            <rect x="376" y="88" clip-path="url(#clipPath18)" fill="white" width="35" height="18" stroke="none"/>
            <rect x="376" y="88" clip-path="url(#clipPath18)" fill="none" width="34" height="17" stroke="white" stroke-width="0.1"/>
            <text x="376" y="100" clip-path="url(#clipPath18)" fill="black" stroke="none" stroke-width="0.1" xml:space="preserve">items</text>
            <circle clip-path="url(#clipPath19)" fill="white" r="19" cx="527" cy="605" stroke="none" stroke-width="0.1"/>
            <circle fill="none" r="19.5" clip-path="url(#clipPath19)" cx="527.5" cy="605.5"/>
            <rect x="418" y="490" clip-path="url(#clipPath20)" fill="white" width="96" height="18" stroke="none"/>
            <rect x="418" y="490" clip-path="url(#clipPath20)" fill="none" width="95" height="17" stroke="white" stroke-width="0.1"/>
            <text x="418" y="502" clip-path="url(#clipPath20)" fill="black" stroke="none" stroke-width="0.1" xml:space="preserve">reservedItems</text>
            <rect x="328" y="286" clip-path="url(#clipPath21)" fill="white" width="40" height="40" stroke="none" stroke-width="0.1"/>
            <rect x="328" y="286" clip-path="url(#clipPath21)" fill="none" width="39" height="39"/>
            <rect x="424" y="190" clip-path="url(#clipPath22)" fill="white" width="92" height="18" stroke="none"/>
            <rect x="424" y="190" clip-path="url(#clipPath22)" fill="none" width="91" height="17" stroke="white" stroke-width="0.1"/>
            <text x="424" y="202" clip-path="url(#clipPath22)" fill="black" stroke="none" stroke-width="0.1" xml:space="preserve">ReserveItems</text>
            <rect x="382" y="1288" clip-path="url(#clipPath23)" fill="white" width="40" height="40" stroke="none" stroke-width="0.1"/>
            <rect x="382" y="1288" clip-path="url(#clipPath23)" fill="none" width="39" height="39"/>
            <rect x="274" y="1186" clip-path="url(#clipPath24)" fill="white" width="119" height="18" stroke="none"/>
            <rect x="274" y="1186" clip-path="url(#clipPath24)" fill="none" width="118" height="17" stroke="white" stroke-width="0.1"/>
            <text x="274" y="1198" clip-path="url(#clipPath24)" fill="black" stroke="none" stroke-width="0.1" xml:space="preserve">ShippingConfirmed</text>
            <rect x="580" y="688" clip-path="url(#clipPath25)" fill="white" width="40" height="40" stroke="none" stroke-width="0.1"/>
            <rect x="580" y="688" clip-path="url(#clipPath25)" fill="none" width="39" height="39"/>
            <rect x="352" y="586" clip-path="url(#clipPath26)" fill="white" width="94" height="18" stroke="none"/>
            <rect x="352" y="586" clip-path="url(#clipPath26)" fill="none" width="93" height="17" stroke="white" stroke-width="0.1"/>
            <text x="352" y="598" clip-path="url(#clipPath26)" fill="black" stroke="none" stroke-width="0.1" xml:space="preserve">MakePayment</text>
            <rect x="388" y="886" clip-path="url(#clipPath27)" fill="white" width="40" height="40" stroke="none" stroke-width="0.1"/>
            <rect x="388" y="886" clip-path="url(#clipPath27)" fill="none" width="39" height="39"/>
            <rect x="352" y="790" clip-path="url(#clipPath28)" fill="white" width="95" height="18" stroke="none"/>
            <rect x="352" y="790" clip-path="url(#clipPath28)" fill="none" width="94" height="17" stroke="white" stroke-width="0.1"/>
            <text x="352" y="802" clip-path="url(#clipPath28)" fill="black" stroke="none" stroke-width="0.1" xml:space="preserve">PaymentFailed</text>
            <rect x="322" y="490" clip-path="url(#clipPath29)" fill="white" width="40" height="40" stroke="none" stroke-width="0.1"/>
            <rect x="322" y="490" clip-path="url(#clipPath29)" fill="none" width="39" height="39"/>
            <rect x="364" y="388" clip-path="url(#clipPath30)" fill="white" width="101" height="18" stroke="none"/>
            <rect x="364" y="388" clip-path="url(#clipPath30)" fill="none" width="100" height="17" stroke="white" stroke-width="0.1"/>
            <text x="364" y="400" clip-path="url(#clipPath30)" fill="black" stroke="none" stroke-width="0.1" xml:space="preserve">ItemsReserved</text>
            <rect x="178" y="490" clip-path="url(#clipPath31)" fill="white" width="40" height="40" stroke="none" stroke-width="0.1"/>
            <rect x="178" y="490" clip-path="url(#clipPath31)" fill="none" width="39" height="39"/>
            <rect x="28" y="388" clip-path="url(#clipPath32)" fill="white" width="174" height="18" stroke="none"/>
            <rect x="28" y="388" clip-path="url(#clipPath32)" fill="none" width="173" height="17" stroke="white" stroke-width="0.1"/>
            <text x="28" y="400" clip-path="url(#clipPath32)" fill="black" stroke="none" stroke-width="0.1" xml:space="preserve">OrderHadUnavailableItems</text>
            <rect x="736" y="490" clip-path="url(#clipPath33)" fill="white" width="40" height="40" stroke="none" stroke-width="0.1"/>
            <rect x="736" y="490" clip-path="url(#clipPath33)" fill="none" width="39" height="39"/>
            <rect x="610" y="388" clip-path="url(#clipPath34)" fill="white" width="163" height="18" stroke="none"/>
            <rect x="610" y="388" clip-path="url(#clipPath34)" fill="none" width="162" height="17" stroke="white" stroke-width="0.1"/>
            <text x="610" y="400" clip-path="url(#clipPath34)" fill="black" stroke="none" stroke-width="0.1" xml:space="preserve">ShippingAddressReceived</text>
            <rect x="508" y="1090" clip-path="url(#clipPath35)" fill="white" width="40" height="40" stroke="none" stroke-width="0.1"/>
            <rect x="508" y="1090" clip-path="url(#clipPath35)" fill="none" width="39" height="39"/>
            <rect x="442" y="988" clip-path="url(#clipPath36)" fill="white" width="65" height="18" stroke="none"/>
            <rect x="442" y="988" clip-path="url(#clipPath36)" fill="none" width="64" height="17" stroke="white" stroke-width="0.1"/>
            <text x="442" y="1000" clip-path="url(#clipPath36)" fill="black" stroke="none" stroke-width="0.1" xml:space="preserve">ShipItems</text>
            <rect x="838" y="490" clip-path="url(#clipPath37)" fill="white" width="40" height="40" stroke="none" stroke-width="0.1"/>
            <rect x="838" y="490" clip-path="url(#clipPath37)" fill="none" width="39" height="39"/>
            <rect x="832" y="388" clip-path="url(#clipPath38)" fill="white" width="193" height="18" stroke="none"/>
            <rect x="832" y="388" clip-path="url(#clipPath38)" fill="none" width="192" height="17" stroke="white" stroke-width="0.1"/>
            <text x="832" y="400" clip-path="url(#clipPath38)" fill="black" stroke="none" stroke-width="0.1" xml:space="preserve">PaymentInformationReceived</text>
            <rect x="280" y="88" clip-path="url(#clipPath39)" fill="white" width="40" height="40" stroke="none" stroke-width="0.1"/>
            <rect x="280" y="88" clip-path="url(#clipPath39)" fill="none" width="39" height="39"/>
            <rect x="256" y="10" clip-path="url(#clipPath40)" fill="white" width="79" height="18" stroke="none"/>
            <rect x="256" y="10" clip-path="url(#clipPath40)" fill="none" width="78" height="17" stroke="white" stroke-width="0.1"/>
            <text x="256" y="22" clip-path="url(#clipPath40)" fill="black" stroke="none" stroke-width="0.1" xml:space="preserve">OrderPlaced</text>
            <rect x="634" y="886" clip-path="url(#clipPath41)" fill="white" width="40" height="40" stroke="none" stroke-width="0.1"/>
            <rect x="634" y="886" clip-path="url(#clipPath41)" fill="none" width="39" height="39"/>
            <rect x="610" y="790" clip-path="url(#clipPath42)" fill="white" width="127" height="18" stroke="none"/>
            <rect x="610" y="790" clip-path="url(#clipPath42)" fill="none" width="126" height="17" stroke="white" stroke-width="0.1"/>
            <text x="610" y="802" clip-path="url(#clipPath42)" fill="black" stroke="none" stroke-width="0.1" xml:space="preserve">PaymentSuccessful</text>
            <line clip-path="url(#clipPath43)" fill="none" x1="600" x2="533" y1="728" y2="790"/>
            <polygon clip-path="url(#clipPath44)" points=" 533 790 539 779 538 785 545 785" stroke="none"/>
            <polygon fill="none" clip-path="url(#clipPath44)" points=" 533 790 539 779 538 785 545 785"/>
            <line clip-path="url(#clipPath43)" fill="none" x1="858" x2="612" y1="626" y2="688"/>
            <polygon clip-path="url(#clipPath45)" points=" 612 688 623 681 619 686 625 689" stroke="none"/>
            <polygon fill="none" clip-path="url(#clipPath45)" points=" 612 688 623 681 619 686 625 689"/>
            <line clip-path="url(#clipPath43)" fill="none" x1="275" x2="208" y1="427" y2="490"/>
            <polygon clip-path="url(#clipPath46)" points=" 208 490 214 479 213 485 219 485" stroke="none"/>
            <polygon fill="none" clip-path="url(#clipPath46)" points=" 208 490 214 479 213 485 219 485"/>
            <line clip-path="url(#clipPath43)" fill="none" x1="287" x2="335" y1="427" y2="490"/>
            <polygon clip-path="url(#clipPath47)" points=" 335 490 325 483 331 484 331 478" stroke="none"/>
            <polygon fill="none" clip-path="url(#clipPath47)" points=" 335 490 325 483 331 484 331 478"/>
            <line clip-path="url(#clipPath43)" fill="none" x1="528" x2="596" y1="626" y2="688"/>
            <polygon clip-path="url(#clipPath48)" points=" 596 688 584 683 591 683 590 677" stroke="none"/>
            <polygon fill="none" clip-path="url(#clipPath48)" points=" 596 688 584 683 591 683 590 677"/>
            <line clip-path="url(#clipPath43)" fill="none" x1="858" x2="858" y1="530" y2="586"/>
            <polygon clip-path="url(#clipPath49)" points=" 858 586 854 574 858 579 862 574" stroke="none"/>
            <polygon fill="none" clip-path="url(#clipPath49)" points=" 858 586 854 574 858 579 862 574"/>
            <line clip-path="url(#clipPath43)" fill="none" x1="293" x2="251" y1="128" y2="190"/>
            <polygon clip-path="url(#clipPath50)" points=" 251 190 254 178 255 184 261 182" stroke="none"/>
            <polygon fill="none" clip-path="url(#clipPath50)" points=" 251 190 254 178 255 184 261 182"/>
            <line clip-path="url(#clipPath43)" fill="none" x1="306" x2="341" y1="128" y2="191"/>
            <polygon clip-path="url(#clipPath51)" points=" 341 191 332 182 338 185 339 179" stroke="none"/>
            <polygon fill="none" clip-path="url(#clipPath51)" points=" 341 191 332 182 338 185 339 179"/>
            <line clip-path="url(#clipPath43)" fill="none" x1="756" x2="631" y1="530" y2="587"/>
            <polygon clip-path="url(#clipPath52)" points=" 631 587 640 578 637 584 644 586" stroke="none"/>
            <polygon fill="none" clip-path="url(#clipPath52)" points=" 631 587 640 578 637 584 644 586"/>
            <line clip-path="url(#clipPath43)" fill="none" x1="624" x2="604" y1="626" y2="688"/>
            <polygon clip-path="url(#clipPath53)" points=" 604 688 604 675 606 681 611 678" stroke="none"/>
            <polygon fill="none" clip-path="url(#clipPath53)" points=" 604 688 604 675 606 681 611 678"/>
            <line clip-path="url(#clipPath43)" fill="none" x1="348" x2="287" y1="326" y2="388"/>
            <polygon clip-path="url(#clipPath54)" points=" 287 388 293 377 292 383 298 382" stroke="none"/>
            <polygon fill="none" clip-path="url(#clipPath54)" points=" 287 388 293 377 292 383 298 382"/>
            <line clip-path="url(#clipPath43)" fill="none" x1="348" x2="348" y1="230" y2="286"/>
            <polygon clip-path="url(#clipPath55)" points=" 348 286 344 274 348 279 352 274" stroke="none"/>
            <polygon fill="none" clip-path="url(#clipPath55)" points=" 348 286 344 274 348 279 352 274"/>
            <line clip-path="url(#clipPath43)" fill="none" x1="342" x2="523" y1="530" y2="586"/>
            <polygon clip-path="url(#clipPath56)" points=" 523 586 510 586 516 584 513 579" stroke="none"/>
            <polygon fill="none" clip-path="url(#clipPath56)" points=" 523 586 510 586 516 584 513 579"/>
            <line clip-path="url(#clipPath43)" fill="none" x1="198" x2="137" y1="530" y2="586"/>
            <polygon clip-path="url(#clipPath57)" points=" 137 586 143 575 142 581 149 581" stroke="none"/>
            <polygon fill="none" clip-path="url(#clipPath57)" points=" 137 586 143 575 142 581 149 581"/>
            <line clip-path="url(#clipPath43)" fill="none" x1="588" x2="534" y1="1028" y2="1090"/>
            <polygon clip-path="url(#clipPath58)" points=" 534 1090 539 1078 539 1085 545 1084" stroke="none"/>
            <polygon fill="none" clip-path="url(#clipPath58)" points=" 534 1090 539 1078 539 1085 545 1084"/>
            <line clip-path="url(#clipPath43)" fill="none" x1="474" x2="408" y1="1226" y2="1288"/>
            <polygon clip-path="url(#clipPath59)" points=" 408 1288 414 1277 413 1283 419 1283" stroke="none"/>
            <polygon fill="none" clip-path="url(#clipPath59)" points=" 408 1288 414 1277 413 1283 419 1283"/>
            <line clip-path="url(#clipPath43)" fill="none" x1="654" x2="593" y1="926" y2="988"/>
            <polygon clip-path="url(#clipPath60)" points=" 593 988 599 977 598 983 604 982" stroke="none"/>
            <polygon fill="none" clip-path="url(#clipPath60)" points=" 593 988 599 977 598 983 604 982"/>
            <line clip-path="url(#clipPath43)" fill="none" x1="532" x2="644" y1="829" y2="886"/>
            <polygon clip-path="url(#clipPath61)" points=" 644 886 631 884 638 883 635 877" stroke="none"/>
            <polygon fill="none" clip-path="url(#clipPath61)" points=" 644 886 631 884 638 883 635 877"/>
            <line clip-path="url(#clipPath43)" fill="none" x1="522" x2="418" y1="829" y2="886"/>
            <polygon clip-path="url(#clipPath62)" points=" 418 886 427 877 424 883 430 884" stroke="none"/>
            <polygon fill="none" clip-path="url(#clipPath62)" points=" 418 886 427 877 424 883 430 884"/>
            <line clip-path="url(#clipPath43)" fill="none" x1="528" x2="479" y1="1130" y2="1186"/>
            <polygon clip-path="url(#clipPath63)" points=" 479 1186 484 1174 484 1181 490 1180" stroke="none"/>
            <polygon fill="none" clip-path="url(#clipPath63)" points=" 479 1186 484 1174 484 1181 490 1180"/>
            <line clip-path="url(#clipPath43)" fill="none" x1="246" x2="338" y1="230" y2="286"/>
            <polygon clip-path="url(#clipPath64)" points=" 338 286 326 283 332 282 330 276" stroke="none"/>
            <polygon fill="none" clip-path="url(#clipPath64)" points=" 338 286 326 283 332 282 330 276"/>
            <line clip-path="url(#clipPath43)" fill="none" x1="64" x2="125" y1="508" y2="586" stroke-dasharray="1.1,1.1"/>
            <line clip-path="url(#clipPath43)" fill="none" x1="420" x2="467" y1="1108" y2="1187" stroke-dasharray="1.1,1.1"/>
            <line clip-path="url(#clipPath43)" fill="none" x1="624" x2="624" y1="508" y2="586" stroke-dasharray="1.1,1.1"/>
            <line clip-path="url(#clipPath43)" fill="none" x1="471" x2="521" y1="706" y2="791" stroke-dasharray="1.1,1.1"/>
            <line clip-path="url(#clipPath43)" fill="none" x1="528" x2="581" y1="904" y2="989" stroke-dasharray="1.1,1.1"/>
            <line clip-path="url(#clipPath43)" fill="none" x1="196" x2="239" y1="106" y2="191" stroke-dasharray="1.1,1.1"/>
            <line clip-path="url(#clipPath43)" fill="none" x1="218" x2="275" y1="304" y2="389" stroke-dasharray="1.1,1.1"/>
            <line clip-path="url(#clipPath43)" fill="none" x1="1007" x2="865" y1="508" y2="587" stroke-dasharray="1.1,1.1"/>
            <line clip-path="url(#clipPath43)" fill="none" x1="393" x2="353" y1="106" y2="190" stroke-dasharray="1.1,1.1"/>
            <line clip-path="url(#clipPath43)" fill="none" x1="466" x2="535" y1="508" y2="587" stroke-dasharray="1.1,1.1"/>
            <line clip-path="url(#clipPath43)" fill="none" x1="470" x2="358" y1="208" y2="286" stroke-dasharray="1.1,1.1"/>
            <line clip-path="url(#clipPath43)" fill="none" x1="333" x2="395" y1="1204" y2="1288" stroke-dasharray="1.1,1.1"/>
            <line clip-path="url(#clipPath43)" fill="none" x1="399" x2="588" y1="604" y2="688" stroke-dasharray="1.1,1.1"/>
            <line clip-path="url(#clipPath43)" fill="none" x1="408" x2="408" y1="808" y2="886" stroke-dasharray="1.1,1.1"/>
            <line clip-path="url(#clipPath43)" fill="none" x1="414" x2="348" y1="406" y2="490" stroke-dasharray="1.1,1.1"/>
            <line clip-path="url(#clipPath43)" fill="none" x1="115" x2="198" y1="406" y2="490" stroke-dasharray="1.1,1.1"/>
            <line clip-path="url(#clipPath43)" fill="none" x1="756" x2="756" y1="406" y2="490" stroke-dasharray="1.1,1.1"/>
            <line clip-path="url(#clipPath43)" fill="none" x1="474" x2="521" y1="1006" y2="1090" stroke-dasharray="1.1,1.1"/>
            <line clip-path="url(#clipPath43)" fill="none" x1="858" x2="858" y1="406" y2="490" stroke-dasharray="1.1,1.1"/>
            <line clip-path="url(#clipPath43)" fill="none" x1="300" x2="300" y1="28" y2="88" stroke-dasharray="1.1,1.1"/>
            <line clip-path="url(#clipPath43)" fill="none" x1="654" x2="654" y1="808" y2="886" stroke-dasharray="1.1,1.1"/>
        </g>
    </g>
</svg>
